<svg xmlns="http://www.w3.org/2000/svg" width="867" height="277" viewBox="0 0 867 277" version="1.1"><path d="M 78.569 55.924 C 77.359 57.260, 77.236 57.787, 78.164 57.646 C 80.116 57.350, 82 56.022, 82 54.941 C 82 53.412, 80.436 53.860, 78.569 55.924 M 117.373 71.472 C 112.338 76.727, 108.466 84.233, 107.558 90.500 C 107.182 93.095, 107.276 93.813, 107.824 92.544 C 108.664 90.603, 108.679 90.603, 109.805 92.544 C 110.871 94.382, 110.941 94.350, 110.970 92 C 111.009 88.945, 115.825 78.569, 120.066 72.404 C 121.786 69.904, 122.922 67.588, 122.590 67.257 C 122.259 66.926, 119.911 68.822, 117.373 71.472 M 80.627 88.250 C 81.519 94.074, 82 94.220, 82 88.667 C 82 86.100, 81.545 84, 80.988 84 C 80.362 84, 80.225 85.621, 80.627 88.250 M 66.377 90.460 C 66.034 91.354, 66.034 92.367, 66.376 92.710 C 66.719 93.053, 67 92.583, 67 91.667 C 67 90.750, 67.432 90, 67.961 90 C 68.490 90, 69.080 93.826, 69.273 98.503 L 69.624 107.005 69.562 98.333 C 69.519 92.332, 69.115 89.534, 68.251 89.248 C 67.563 89.020, 66.720 89.566, 66.377 90.460 M 84.349 98 C 84.349 102.675, 84.522 104.587, 84.732 102.250 C 84.943 99.912, 84.943 96.087, 84.732 93.750 C 84.522 91.412, 84.349 93.325, 84.349 98 M 72.492 92.014 C 72.111 92.629, 72.070 93.403, 72.400 93.733 C 72.730 94.063, 73 93.808, 73 93.167 C 73 91.064, 74.857 91.946, 75.280 94.250 C 75.659 96.313, 75.685 96.299, 75.596 94.077 C 75.492 91.454, 73.610 90.204, 72.492 92.014 M 87.286 96.500 C 87.294 99.250, 87.488 100.256, 87.718 98.736 C 87.947 97.216, 87.941 94.966, 87.704 93.736 C 87.467 92.506, 87.279 93.750, 87.286 96.500 M 60.343 100.500 C 60.346 104.900, 60.522 106.576, 60.733 104.224 C 60.945 101.872, 60.942 98.272, 60.727 96.224 C 60.512 94.176, 60.339 96.100, 60.343 100.500 M 63.310 98.500 C 63.315 101.800, 63.502 103.029, 63.725 101.232 C 63.947 99.435, 63.943 96.735, 63.715 95.232 C 63.486 93.729, 63.304 95.200, 63.310 98.500 M 556.250 93.723 L 553 94.127 553 134.063 L 553 174 559.358 174 L 565.716 174 566.430 155.250 C 567.219 134.516, 567.811 132.392, 573.952 128.253 C 579.685 124.390, 585.571 125.756, 589.720 131.912 C 591.898 135.145, 592 136.159, 592 154.648 L 592 174 602.383 174 L 612.766 174 617.341 162.250 C 619.858 155.787, 622.925 147.843, 624.156 144.595 C 625.388 141.347, 626.538 139.097, 626.710 139.595 C 626.882 140.093, 629.890 147.925, 633.393 157 L 639.763 173.500 645.634 173.791 L 651.505 174.083 654.436 165.791 C 657.134 158.159, 667.741 130.747, 672.848 118.210 L 675.003 112.919 666.810 113.210 L 658.617 113.500 656.160 119.500 C 654.808 122.800, 652.049 130.140, 650.027 135.812 C 648.006 141.483, 645.976 146.126, 645.516 146.129 C 645.056 146.132, 641.540 138.680, 637.703 129.567 L 630.726 113 626.497 113 L 622.268 113 619.266 119.750 C 617.616 123.463, 614.552 131.225, 612.457 137 C 610.363 142.775, 608.310 147.896, 607.895 148.380 C 607.479 148.864, 606.857 147.514, 606.512 145.380 C 603.616 127.461, 600.343 120.241, 592.876 115.300 C 589.222 112.881, 587.661 112.500, 581.407 112.500 C 575.425 112.500, 573.628 112.899, 571.062 114.796 C 569.354 116.058, 567.517 116.819, 566.979 116.487 C 566.433 116.149, 566 110.823, 566 104.441 L 566 93 562.750 93.160 C 560.962 93.248, 558.038 93.502, 556.250 93.723 M 516.750 101.080 C 515.425 101.852, 515 103.412, 515 107.504 L 515 112.909 508.250 113.204 L 501.500 113.500 501.500 119.500 L 501.500 125.500 508.165 125.794 L 514.829 126.087 515.173 142.294 C 515.554 160.264, 516.061 162.049, 522.589 168.389 C 526.471 172.159, 533.384 175, 538.678 175 L 542 175 542 168.012 L 542 161.024 538.237 160.422 C 530.375 159.165, 529.116 155.999, 529.044 137.294 L 529 126.088 536.250 125.794 L 543.500 125.500 543.500 119.500 L 543.500 113.500 536.500 113 L 529.500 112.500 529.202 106.250 L 528.905 100 523.702 100.030 C 520.841 100.047, 517.712 100.519, 516.750 101.080 M 342.500 111.620 C 333.394 113.943, 329.104 116.916, 325.956 123.086 C 322.493 129.874, 323.879 138.865, 329.135 143.702 C 332.716 146.999, 337.675 148.740, 347.337 150.091 C 357.479 151.510, 359.561 152.627, 358.671 156.173 C 357.321 161.553, 346.235 162.719, 337.057 158.447 L 331.613 155.913 327.057 160.511 L 322.500 165.109 324.990 167.159 C 330.818 171.958, 337.266 174.329, 345.764 174.797 C 355.923 175.357, 361.589 173.900, 366.886 169.366 C 371.666 165.274, 373.381 160.613, 372.780 153.356 C 372.409 148.883, 371.743 147.330, 368.967 144.465 C 365.036 140.410, 357.895 137.489, 349.482 136.495 C 342.225 135.638, 339 133.803, 339 130.534 C 339 124.705, 349.417 123.119, 358.849 127.510 C 361.791 128.879, 364.349 130, 364.532 130 C 364.716 130, 366.533 127.966, 368.570 125.480 C 372.083 121.193, 372.187 120.864, 370.584 119.093 C 366.187 114.235, 349.577 109.815, 342.500 111.620 M 468.500 113.146 C 466.850 113.756, 464.014 115.364, 462.198 116.718 L 458.896 119.181 459.198 116.341 L 459.500 113.500 453 113.500 L 446.500 113.500 446.235 143.750 L 445.971 174 452.985 174 L 460 174 460 156.196 L 460 138.392 462.983 133.688 C 468.310 125.287, 476.531 123.772, 482.575 130.076 L 485.500 133.127 485.807 153.563 L 486.114 174 493.057 174 L 500 174 500 155.049 C 500 144.626, 499.518 133.849, 498.928 131.100 C 497.630 125.048, 493.404 118.957, 488.038 115.407 C 483.491 112.397, 473.613 111.254, 468.500 113.146 M 686.895 114.786 C 669.466 123.891, 664.553 148.134, 676.956 163.825 C 685.209 174.266, 700 178.007, 711.627 172.593 C 714.448 171.280, 717.138 169.597, 717.606 168.853 C 718.216 167.884, 718.607 168.352, 718.985 170.500 C 719.504 173.447, 719.632 173.505, 726.256 173.796 L 733 174.091 733 143.546 L 733 113 726 113 C 719.200 113, 719 113.071, 719 115.500 C 719 118.085, 717.631 118.830, 716.436 116.896 C 714.780 114.217, 707.391 112.044, 699.864 112.022 C 693.427 112.003, 691.391 112.437, 686.895 114.786 M 824.385 113.570 C 811.046 118.454, 802.315 136.641, 805.979 151.914 C 807.739 159.247, 814.296 167.759, 821.069 171.500 C 826.032 174.242, 827.318 174.500, 836 174.500 C 844.267 174.500, 846.214 174.152, 851 171.821 C 854.025 170.348, 857.625 168.227, 859 167.108 L 861.500 165.074 856.246 159.795 C 851.709 155.236, 850.753 154.683, 849.246 155.745 C 844.503 159.086, 841.134 160.286, 836.500 160.286 C 830.757 160.286, 826.128 158.249, 823.088 154.385 C 818.885 149.041, 819.041 149, 843.481 149 L 865.962 149 866.606 146.434 C 867.443 143.100, 865.543 133.752, 862.931 128.358 C 860.399 123.127, 854.233 116.832, 849.243 114.386 C 844.245 111.936, 830.116 111.472, 824.385 113.570 M 375 113.768 C 375 114.190, 376.056 116.103, 377.347 118.018 C 380.754 123.073, 390.787 139.849, 397.791 152.201 L 403.859 162.902 396.556 177.488 L 389.253 192.074 397.657 191.787 L 406.062 191.500 414.654 173 C 419.380 162.825, 427.466 145.528, 432.623 134.562 C 437.780 123.597, 442 114.259, 442 113.812 C 442 113.366, 438.719 113, 434.709 113 L 427.418 113 419.171 130.249 L 410.923 147.499 406.619 139.443 C 400.430 127.860, 393.961 116.777, 392.205 114.750 C 391.002 113.361, 389.073 113, 382.845 113 C 378.530 113, 375 113.346, 375 113.768 M 739 113.967 C 739 114.499, 744.817 128.111, 751.926 144.217 L 764.852 173.500 772.490 173.500 L 780.129 173.500 783.443 165.983 C 785.267 161.849, 791.313 148.676, 796.879 136.710 C 802.446 124.745, 807 114.496, 807 113.935 C 807 113.307, 804.111 113.028, 799.478 113.208 L 791.955 113.500 785.669 127 C 782.212 134.425, 778.091 143.650, 776.512 147.500 C 774.933 151.350, 773.380 154.819, 773.060 155.210 C 772.741 155.600, 768.258 146.263, 763.098 134.460 L 753.716 113 746.358 113 C 742.288 113, 739 113.432, 739 113.967 M 119.580 121.129 C 120.243 122.203, 128.049 126.284, 128.526 125.807 C 128.709 125.624, 126.646 124.294, 123.942 122.852 C 121.237 121.410, 119.274 120.635, 119.580 121.129 M 694.450 127.351 C 687.954 130.299, 683.130 139.551, 684.443 146.547 C 685.951 154.586, 694.950 161.719, 702 160.464 C 710.843 158.890, 717.947 151.602, 717.984 144.066 C 718.006 139.306, 714.461 132.453, 710.355 129.322 C 706.244 126.186, 698.998 125.288, 694.450 127.351 M 826.967 128.250 C 825.137 129.488, 823.044 131.963, 822.317 133.750 L 820.994 137 836.065 137 L 851.135 137 850.449 134.750 C 848.757 129.196, 843.368 126, 835.698 126 C 831.749 126, 829.401 126.605, 826.967 128.250 M 101.500 132 C 104.209 134.750, 106.650 137, 106.925 137 C 107.200 137, 105.209 134.750, 102.500 132 C 99.791 129.250, 97.350 127, 97.075 127 C 96.800 127, 98.791 129.250, 101.500 132 M 97.958 133.250 C 102.102 137.665, 103 138.459, 103 137.708 C 103 137.548, 100.862 135.410, 98.250 132.958 L 93.500 128.500 97.958 133.250 M 155.750 130.141 C 157.489 131.892, 157.313 133.334, 155.448 132.618 C 154.558 132.277, 154.157 132.445, 154.507 133.011 C 154.843 133.555, 155.766 134, 156.559 134 C 158.605 134, 158.351 130.348, 156.250 129.548 C 154.847 129.014, 154.748 129.131, 155.750 130.141 M 82.447 139.771 C 90.786 148.343, 92.118 151.061, 85.444 145.886 L 81.500 142.828 85.417 146.414 C 87.571 148.386, 89.740 150, 90.236 150 C 92.734 150, 89.687 145.674, 82.500 139.015 L 74.500 131.602 82.447 139.771 M 154.505 173.984 C 153.799 176.208, 146.695 182.353, 142.946 183.983 C 140.526 185.035, 140.530 185.040, 143.250 184.504 C 147.034 183.758, 146.693 184.586, 142.250 186.932 C 140.188 188.021, 138.974 188.931, 139.554 188.956 C 143.158 189.107, 157 176.701, 157 173.320 C 157 171.283, 155.211 171.759, 154.505 173.984 M 208 176.059 C 208 176.641, 208.425 176.855, 208.944 176.534 C 209.469 176.210, 210.055 178.070, 210.264 180.725 L 210.640 185.500 210.820 180.250 C 210.960 176.170, 210.666 175, 209.500 175 C 208.675 175, 208 175.477, 208 176.059 M 149.583 180.542 C 147.429 182.444, 146.103 184, 146.637 184 C 147.171 184, 149.134 182.425, 151 180.500 C 155.310 176.053, 154.644 176.073, 149.583 180.542 M 121.280 187.736 C 123.909 187.943, 127.959 187.940, 130.280 187.731 C 132.601 187.521, 130.450 187.352, 125.500 187.355 C 120.550 187.358, 118.651 187.530, 121.280 187.736 M 120.280 190.736 C 122.909 190.943, 126.959 190.940, 129.280 190.731 C 131.601 190.521, 129.450 190.352, 124.500 190.355 C 119.550 190.358, 117.651 190.530, 120.280 190.736 M 164.603 208.477 C 161.913 210.389, 159.440 212.250, 159.106 212.612 C 158.002 213.811, 162.442 211.188, 165.944 208.572 C 169.450 205.954, 172.396 205.004, 170.200 207.200 C 169.540 207.860, 169 208.846, 169 209.391 C 169 209.936, 169.661 209.509, 170.468 208.441 C 173.963 203.820, 171.129 203.837, 164.603 208.477 M 125 223.945 C 125 224.465, 122.862 225.059, 120.250 225.265 L 115.500 225.640 120.750 225.820 C 124.830 225.960, 126 225.666, 126 224.500 C 126 223.675, 125.775 223, 125.500 223 C 125.225 223, 125 223.425, 125 223.945 M 201.974 229.807 C 197.835 233.488, 192.885 237.772, 190.974 239.328 C 187.720 241.977, 187.777 241.964, 191.881 239.126 C 194.291 237.460, 197.666 234.874, 199.381 233.381 C 206.708 227, 210.906 223.004, 210.228 223.057 C 209.827 223.088, 206.114 226.125, 201.974 229.807" stroke="none" fill="#040404" fill-rule="evenodd"/><path d="M 115.521 1.049 C 76.838 7.109, 43.706 28.072, 22.522 59.893 C 10.374 78.140, 4.292 94.395, 1.382 116.388 C -0.521 130.773, -0.029 153.008, 2.476 165.816 C 6.394 185.850, 15.401 206.443, 27.050 222 C 36.526 234.655, 41.526 239.691, 53.841 248.985 C 72.147 262.802, 95.912 273.346, 114.877 276.066 C 125.336 277.566, 148.662 276.733, 159 274.490 C 199.646 265.671, 231.602 242.064, 251.708 206 C 261.741 188.005, 269 158.635, 269 136.039 L 269 130 261.500 130 L 254 130 254 137.622 C 254 156.015, 248.994 177.198, 240.546 194.552 C 227.780 220.775, 205.421 242.073, 179.610 252.596 C 155.370 262.478, 126.522 265.045, 106 259.144 C 90.758 254.762, 74.687 246.397, 60.211 235.311 C 37.345 217.799, 20.470 187.693, 16.035 156.500 C 14.860 148.235, 14.808 125.415, 15.949 119 C 16.741 114.549, 16.751 114.572, 16.875 121.090 C 17.039 129.707, 20.138 141.602, 24.209 149.241 C 29.899 159.916, 71.655 201.754, 83.748 208.897 C 111.459 225.264, 146.957 222.651, 167.716 202.717 C 177.918 192.920, 182 183.579, 182 170.029 C 182 156.005, 177.754 145.211, 168.142 134.802 C 163.254 129.509, 160.392 127.942, 158.700 129.633 C 158.352 129.981, 160.760 133.206, 164.052 136.798 C 174.984 148.729, 178.680 159.892, 175.635 171.781 C 171.452 188.106, 162.213 197.250, 143.580 203.505 C 129.555 208.213, 109.789 206.269, 95.781 198.803 C 89.203 195.297, 68.112 176.218, 50 157.391 C 38.244 145.171, 34.277 138.531, 31.002 125.590 C 22.824 93.279, 42.761 49.152, 73.655 31.184 C 84.921 24.632, 85.942 24.394, 88.581 27.704 L 90.806 30.494 85.610 33.282 C 67.412 43.047, 50.646 64.560, 45.303 85 C 42.948 94.009, 42.987 111.515, 45.380 119.500 C 48.987 131.539, 52.563 136.582, 68.686 152.370 C 90.453 173.683, 96.516 177.871, 110.947 181.566 C 120.697 184.062, 134.871 183.217, 141.620 179.738 C 150.723 175.045, 155 168.094, 155 157.992 C 155 146.094, 150.130 140.860, 129.702 130.800 C 115.106 123.612, 110.256 119.999, 106.426 113.463 C 100.960 104.136, 101.704 90.052, 108.235 79.243 C 119.253 61.005, 140.683 50.025, 165.292 50.007 C 188.051 49.991, 207.239 57.862, 227.486 75.520 C 234.886 81.974, 238 83.130, 238 79.423 C 238 76.562, 228.258 65.409, 220.745 59.669 C 186.792 33.728, 135.675 35.095, 108.327 62.676 C 96.492 74.611, 91.133 88.285, 92.327 103.500 C 93.156 114.074, 95.400 119.285, 102.297 126.658 C 107.645 132.376, 110.066 133.974, 123.419 140.599 C 131.713 144.715, 139.562 149.136, 140.860 150.423 C 142.371 151.923, 143.398 154.351, 143.717 157.178 C 144.137 160.905, 143.803 162.081, 141.574 164.729 C 137.996 168.982, 133.226 170.383, 124.585 169.720 C 111.328 168.703, 102.241 163.890, 85.450 148.992 C 64.685 130.568, 58 118.579, 58 99.761 C 58 94.880, 58.496 88.774, 59.103 86.193 C 60.931 78.415, 69.472 61.945, 75.350 54.863 C 88.048 39.563, 110.619 26.355, 127.450 24.377 C 132.222 23.816, 132.917 23.977, 133.933 25.874 C 134.915 27.709, 135.988 28.006, 141.785 28.048 L 148.500 28.095 139.201 30.555 C 126.952 33.794, 124.334 34.958, 115.407 41.130 C 95.791 54.690, 86.314 71.496, 85.265 94.583 C 84.713 106.731, 85.935 112.991, 90.690 122.375 C 94.170 129.243, 102.293 137.521, 108.391 140.415 C 117.156 144.575, 118.797 144.335, 111.717 139.929 C 100.210 132.769, 91.850 122.016, 89.225 111 C 86.263 98.568, 86.791 88.947, 91.063 77.500 C 93.588 70.735, 96.089 68.061, 108.745 58.596 C 129.709 42.917, 150.632 36.678, 174.592 38.961 C 197.010 41.097, 223.954 54.367, 234.107 68.272 C 238.880 74.810, 246.437 90.546, 249.584 100.500 C 251.149 105.450, 252.477 109.606, 252.534 109.736 C 252.692 110.094, 266.136 107.197, 266.637 106.696 C 267.496 105.837, 260.717 86.341, 256.447 77.392 C 249.840 63.543, 240.691 50.641, 229.527 39.431 C 210.827 20.653, 188.455 8.499, 161.500 2.475 C 153.102 0.598, 124.134 -0.301, 115.521 1.049 M 115.500 16 C 115.160 16.550, 113.122 17, 110.971 17 C 108.821 17, 105.458 17.900, 103.500 19 C 101.542 20.100, 98.879 21, 97.584 21 C 95.453 21, 92.704 22.094, 89.247 24.316 C 88.334 24.903, 88.276 25.647, 89.032 27.061 C 90.130 29.112, 93.459 29.684, 94.500 28 C 94.840 27.450, 96.190 27, 97.500 27 C 98.810 27, 100.160 26.550, 100.500 26 C 100.840 25.450, 102.640 25, 104.500 25 C 106.360 25, 108.160 24.550, 108.500 24 C 108.840 23.450, 110.640 23, 112.500 23 C 114.360 23, 116.160 22.550, 116.500 22 C 116.840 21.450, 120.129 21.015, 123.809 21.033 C 130.466 21.066, 135 23.042, 135 25.910 C 135 26.890, 162.812 27.581, 179.305 27.012 C 181.947 26.921, 184.735 27.365, 185.500 28 C 186.264 28.634, 187.927 29.002, 189.195 28.817 C 191.322 28.506, 191.237 28.346, 188.096 26.740 C 186.224 25.783, 184.101 25, 183.377 25 C 182.653 25, 180.458 24.100, 178.500 23 C 176.542 21.900, 174.079 21, 173.029 21 C 171.978 21, 170.840 20.550, 170.500 20 C 170.160 19.450, 168.360 19, 166.500 19 C 164.640 19, 162.840 18.550, 162.500 18 C 162.160 17.450, 160.810 17, 159.500 17 C 158.190 17, 156.840 16.550, 156.500 16 C 156.122 15.388, 148.176 15, 136 15 C 123.824 15, 115.878 15.388, 115.500 16 M 127.389 26.430 C 126.398 29.010, 127.769 31, 130.535 31 C 132.779 31, 133.090 30.625, 132.816 28.250 C 132.452 25.079, 128.425 23.729, 127.389 26.430 M 112.529 31.355 C 109.764 33.377, 110.968 36.500, 114.514 36.500 C 116.822 36.500, 117.571 36.004, 117.811 34.318 C 118.226 31.403, 114.965 29.574, 112.529 31.355 M 102.985 38.570 C 89.437 47.413, 74 67.437, 74 76.166 C 74 79.909, 76.477 77.405, 80.222 69.876 C 84.795 60.682, 96.645 47.576, 105.111 42.351 C 108.759 40.099, 110.969 38.082, 110.791 37.165 C 110.289 34.581, 108.642 34.877, 102.985 38.570 M 76.594 59.450 C 70.777 66.549, 64.412 80.717, 68.050 78.469 C 68.627 78.112, 70.851 74.029, 72.992 69.396 C 75.132 64.763, 77.840 59.628, 79.010 57.986 C 82.199 53.507, 80.739 54.392, 76.594 59.450 M 183.500 56 C 183.130 56.599, 176.478 57, 166.906 57 C 152.419 57, 150.203 57.240, 143.128 59.579 C 129.541 64.069, 119.765 73.613, 115.911 86.148 C 113.796 93.029, 113.659 100.070, 115.629 100.716 C 116.333 100.947, 117.021 98.901, 117.454 95.293 C 119.444 78.718, 132.642 65.302, 150.730 61.469 C 154.488 60.673, 163.012 60.027, 169.890 60.017 C 180.255 60.003, 182.476 60.269, 183.484 61.647 C 185.285 64.111, 190 62.688, 190 59.681 C 190 58.426, 189.460 56.860, 188.800 56.200 C 187.342 54.742, 184.347 54.629, 183.500 56 M 159.080 65.404 C 156.957 67.961, 158.170 70.500, 161.514 70.500 C 164.165 70.500, 164.500 70.164, 164.500 67.500 C 164.500 65.220, 163.999 64.428, 162.412 64.202 C 161.264 64.038, 159.765 64.579, 159.080 65.404 M 147.250 66.644 C 145.540 67.359, 145.672 71.483, 147.452 72.960 C 148.258 73.629, 149.841 73.868, 151.009 73.497 C 152.665 72.972, 153.048 72.154, 152.807 69.665 C 152.500 66.503, 150.363 65.341, 147.250 66.644 M 185.174 68.314 C 178.882 75.013, 186.440 85.774, 194.667 81.831 C 200.151 79.202, 201.300 72.300, 196.975 67.975 C 194.138 65.138, 187.992 65.315, 185.174 68.314 M 82.362 68.500 C 81.417 70.962, 82.776 73, 85.362 73 C 87.947 73, 89.306 70.962, 88.362 68.500 C 88.045 67.675, 86.695 67, 85.362 67 C 84.028 67, 82.678 67.675, 82.362 68.500 M 170.187 71.250 C 170.444 73.915, 170.972 74.555, 173.122 74.804 C 176.017 75.140, 177.455 73.008, 176.455 69.859 C 176.053 68.592, 174.911 68, 172.869 68 C 170.092 68, 169.896 68.237, 170.187 71.250 M 188.571 71.571 C 186.414 73.729, 186.602 75.608, 189.155 77.396 C 190.705 78.482, 191.826 78.628, 193.155 77.917 C 195.588 76.615, 195.533 72.355, 193.066 71.035 C 190.564 69.696, 190.431 69.712, 188.571 71.571 M 210.093 74.388 C 208.281 76.571, 210.451 80.219, 213.318 79.811 C 216.407 79.371, 216.490 73.641, 213.412 73.202 C 212.264 73.038, 210.771 73.571, 210.093 74.388 M 132.390 77.427 C 132.088 78.212, 131.990 79.900, 132.171 81.177 C 132.444 83.102, 133.099 83.500, 136 83.500 C 138.893 83.500, 139.557 83.100, 139.827 81.195 C 140.006 79.927, 139.614 78.240, 138.954 77.445 C 137.411 75.586, 133.101 75.574, 132.390 77.427 M 150.185 78.680 C 143.002 79.028, 141.914 79.316, 142.197 80.791 C 142.484 82.292, 144.466 82.561, 158.512 83 L 174.500 83.500 189.611 92.750 C 197.921 97.838, 205.186 102, 205.754 102 C 206.321 102, 207.032 101.359, 207.333 100.575 C 207.944 98.983, 208.094 99.092, 189.165 87.285 L 175.830 78.966 167.165 78.621 C 162.399 78.432, 154.758 78.458, 150.185 78.680 M 69.980 82.038 C 67.859 86.001, 71.237 89.998, 75.368 88.412 C 77.555 87.573, 78.542 83.358, 76.989 81.487 C 75.203 79.335, 71.260 79.645, 69.980 82.038 M 222 82.709 C 216.943 84.569, 214.778 90.735, 217.401 95.808 C 219.942 100.723, 227.389 101.862, 231.533 97.969 C 238.894 91.054, 231.498 79.217, 222 82.709 M 202.082 84.401 C 199.306 87.746, 204.254 92.694, 207.599 89.918 C 208.425 89.232, 208.966 87.508, 208.801 86.086 C 208.575 84.147, 207.853 83.425, 205.914 83.199 C 204.492 83.034, 202.768 83.575, 202.082 84.401 M 61.625 89.125 C 61.281 90.844, 61 96.223, 61 101.080 C 61 115.465, 65.820 126.381, 77.366 138.142 C 83.856 144.752, 90 149.762, 90 148.444 C 90 148.064, 85.980 143.547, 81.066 138.407 C 67.408 124.121, 62.062 110.543, 63.482 93.750 C 63.876 89.095, 63.761 86, 63.194 86 C 62.675 86, 61.969 87.406, 61.625 89.125 M 151.655 87.829 C 149.332 90.395, 149.522 96.522, 152 99 C 154.750 101.750, 160.313 101.654, 162.961 98.811 C 165.614 95.964, 165.633 90.633, 163 88 C 160.386 85.386, 153.954 85.288, 151.655 87.829 M 79.110 89.795 C 78.104 92.180, 77.899 95.219, 78.367 100.795 C 79.291 111.800, 80.613 116, 83.154 116 C 84.664 116, 85.044 115.556, 84.576 114.337 C 83.889 112.548, 82.478 103.471, 81.257 93 L 80.500 86.500 79.110 89.795 M 222.046 88.445 C 220.492 90.317, 221.059 94.020, 223.095 95.295 C 223.973 95.845, 225.885 95.995, 227.345 95.628 C 232.131 94.427, 230.476 87, 225.422 87 C 224.225 87, 222.705 87.650, 222.046 88.445 M 136.713 89.621 C 134.250 92.083, 137.550 96.595, 141.010 95.497 C 144.199 94.485, 143.386 89.603, 139.963 89.204 C 138.567 89.041, 137.104 89.229, 136.713 89.621 M 66.412 93.615 C 64.763 102.405, 68.294 118.313, 73.711 126.498 C 77.803 132.681, 86.083 141, 88.145 141 C 91.309 141, 90.219 138.647, 84.423 132.966 C 74.505 123.244, 69 110.631, 69 97.629 C 69 89.642, 67.573 87.429, 66.412 93.615 M 122.040 91.452 C 119.385 94.650, 123.283 99.566, 126.750 97.393 C 128.945 96.017, 129.615 92.005, 127.837 90.878 C 125.810 89.593, 123.383 89.833, 122.040 91.452 M 155.200 91.200 C 152.214 94.186, 155.526 98.859, 159.224 96.880 C 162.172 95.302, 160.843 90, 157.500 90 C 156.895 90, 155.860 90.540, 155.200 91.200 M 170.056 92.250 C 170.102 94.067, 173.579 96.646, 188.118 105.648 L 206.123 116.795 221.811 117.536 C 236.495 118.230, 264.734 117.599, 265.779 116.555 C 266.036 116.297, 265.981 115.392, 265.655 114.543 C 265.140 113.202, 261.322 113, 236.502 113 L 207.942 113 197.721 106.359 C 180.410 95.111, 172.066 90, 171.011 90 C 170.455 90, 170.025 91.013, 170.056 92.250 M 107.497 94.013 C 105.929 101.153, 109.845 111.820, 116.113 117.483 C 118.269 119.431, 125.426 123.681, 132.018 126.928 C 151.538 136.544, 158.431 142.821, 161.664 153.925 C 163.687 160.873, 163.049 171.033, 160.244 176.525 C 157.314 182.263, 149.453 189.211, 142.750 191.987 C 136.873 194.421, 135.408 196, 139.029 196 C 142.313 196, 152.188 190.511, 156.387 186.351 C 158.525 184.233, 161.450 180.025, 162.887 177 C 165.103 172.335, 165.500 170.134, 165.500 162.500 C 165.500 154.653, 165.139 152.765, 162.682 147.761 C 157.998 138.224, 152.625 133.796, 136.113 125.868 C 127.192 121.585, 120.037 117.436, 117.744 115.217 C 113.367 110.981, 110 102.853, 110 96.522 C 110 91.288, 108.439 89.723, 107.497 94.013 M 72.607 93.582 C 71.530 96.389, 71.960 99, 73.500 99 C 74.548 99, 75 97.944, 75 95.500 C 75 91.878, 73.670 90.812, 72.607 93.582 M 239.544 98.344 C 237.186 100.069, 238.136 104.591, 241.050 105.516 C 244.982 106.764, 247.822 101.222, 244.800 98.200 C 243.244 96.644, 241.815 96.684, 239.544 98.344 M 130.012 100.250 C 130.018 100.938, 132.455 103.188, 135.426 105.250 L 140.828 109 153.602 109 L 166.376 109 175.438 115.918 C 187.548 125.162, 204.043 142.109, 207.380 148.733 C 212.892 159.674, 214.818 175.254, 211.864 185 L 210.500 189.500 210.204 182.720 C 209.887 175.482, 208 174.150, 208 181.165 C 208 200.584, 192.244 221.582, 169.095 233.013 C 157.225 238.874, 147.858 241.004, 134.062 240.978 C 114.339 240.941, 99.170 236.452, 82.868 225.825 C 74.097 220.108, 57.747 204.652, 51.991 196.637 C 48.751 192.126, 48.518 192, 43.375 192 L 38.089 192 39.537 196.104 C 42.852 205.502, 59.056 225.177, 70.518 233.724 C 80.174 240.924, 105.429 252, 112.191 252 C 113.540 252, 116.809 252.738, 119.456 253.640 C 123.330 254.960, 126.630 255.165, 136.384 254.692 C 163.324 253.387, 182.776 244.698, 201.541 225.585 C 216.785 210.057, 222.926 195.548, 223.161 174.500 C 223.346 157.939, 218.702 144.060, 209.478 133.609 C 206.666 130.423, 205.781 129.937, 204.589 130.926 C 203.348 131.956, 203.716 132.900, 207.087 137.317 C 215.283 148.058, 219.076 159.535, 218.867 172.960 L 218.734 181.500 217.866 173 C 215.492 149.738, 211.463 142.516, 189.467 122.080 C 184.535 117.498, 177.743 111.780, 174.373 109.375 L 168.246 105 155.273 105 C 142.446 105, 142.254 104.966, 138.159 102 C 133.878 98.899, 129.991 98.064, 130.012 100.250 M 209.200 101.200 C 205.967 104.433, 210.953 109.944, 214.470 107.025 C 217.311 104.667, 215.670 100, 212 100 C 211.120 100, 209.860 100.540, 209.200 101.200 M 71.362 103.500 C 69.952 107.172, 74.013 110.416, 76.680 107.748 C 78.903 105.525, 77.506 102, 74.401 102 C 73.046 102, 71.678 102.675, 71.362 103.500 M 120.667 104.667 C 120.300 105.033, 120 106.578, 120 108.099 C 120 110.009, 120.634 111.067, 122.048 111.515 C 126.265 112.854, 128.940 107.109, 125.066 105.035 C 122.822 103.834, 121.601 103.732, 120.667 104.667 M 129 110.381 C 129 111.141, 130.545 112.941, 132.433 114.381 C 135.755 116.915, 136.316 117, 149.721 117 L 163.576 117 177.929 131 C 185.823 138.700, 192.894 145, 193.641 145 C 197.111 145, 193.915 140.724, 180.485 127.400 L 165.969 113 151.735 112.993 C 139.211 112.988, 137.139 112.748, 134.500 111 C 130.984 108.671, 129 108.448, 129 110.381 M 183.713 109.621 C 183.321 110.013, 183 111.375, 183 112.648 C 183 114.300, 183.736 115.147, 185.573 115.608 C 188.713 116.396, 190.281 115.019, 189.835 111.865 C 189.598 110.190, 188.760 109.414, 186.963 109.204 C 185.567 109.041, 184.104 109.229, 183.713 109.621 M 74 112.435 C 74 114.398, 76.249 118, 77.475 118 C 79.274 118, 79.291 117.895, 78.025 114.565 C 77.488 113.154, 76.363 112, 75.525 112 C 74.686 112, 74 112.196, 74 112.435 M 124.223 115.250 C 124.686 116.738, 156.123 133.212, 156.937 132.393 C 157.997 131.328, 152.498 127.694, 143 123.183 C 137.775 120.701, 131.821 117.619, 129.770 116.335 C 125.632 113.745, 123.632 113.353, 124.223 115.250 M 80.667 119.667 C 79.580 120.753, 79.906 124.506, 81.200 125.800 C 84.387 128.987, 89.161 125.037, 87 121 C 85.975 119.084, 82.071 118.262, 80.667 119.667 M 154.384 120.442 C 153.228 123.454, 154.449 125.500, 157.405 125.500 C 160.990 125.500, 162.959 122.860, 161.070 120.584 C 159.427 118.605, 155.124 118.513, 154.384 120.442 M 198.415 122.360 C 198.100 123.182, 197.990 124.900, 198.171 126.177 C 198.432 128.018, 199.122 128.500, 201.500 128.500 C 204.262 128.500, 204.500 128.222, 204.500 125 C 204.500 121.923, 204.167 121.462, 201.744 121.183 C 199.996 120.982, 198.779 121.412, 198.415 122.360 M 217.337 123.477 C 210.101 128.545, 216.739 140.422, 224.914 137.036 C 232.627 133.841, 230.332 122, 222 122 C 220.595 122, 218.496 122.665, 217.337 123.477 M 256 123.016 C 256 123.797, 252.582 124.041, 244.750 123.819 C 234.060 123.516, 233.500 123.600, 233.500 125.500 C 233.500 127.332, 234.255 127.522, 242.500 127.766 C 247.450 127.912, 254.875 127.687, 259 127.266 C 265.578 126.594, 266.500 126.254, 266.500 124.500 C 266.500 122.792, 265.733 122.456, 261.250 122.198 C 257.859 122.003, 256 122.292, 256 123.016 M 165 124.628 C 165 125.523, 169.162 130.601, 174.250 135.912 C 184.648 146.767, 188.528 153.414, 190.099 163.065 C 191.933 174.334, 188.922 188.162, 182.528 197.837 C 178.705 203.621, 178.281 205, 180.326 205 C 183.547 205, 189.462 195.097, 192.516 184.593 C 193.786 180.224, 194.120 175.985, 193.854 167.614 C 193.526 157.290, 193.244 155.938, 190.069 149.488 C 187.578 144.429, 184.041 139.843, 177.168 132.759 C 167.952 123.262, 165 121.289, 165 124.628 M 218.638 128.500 C 217.438 131.629, 220.325 134.580, 223.423 133.391 C 225.457 132.611, 226.229 129.980, 224.895 128.373 C 223.374 126.541, 219.359 126.622, 218.638 128.500 M 87 130.384 C 87 131.145, 88.765 133.362, 90.922 135.310 C 93.744 137.860, 95.447 138.696, 96.996 138.291 C 99.009 137.764, 98.870 137.443, 94.866 133.364 C 90.644 129.062, 87 127.681, 87 130.384 M 236.597 135 C 234.024 137.750, 231.038 140, 229.960 140 C 228.530 140, 228 140.684, 228 142.531 C 228 147.178, 230.720 146.532, 237.127 140.364 C 240.477 137.139, 243.848 133.901, 244.618 133.169 C 245.388 132.438, 245.763 131.425, 245.450 130.919 C 244.161 128.833, 241.005 130.287, 236.597 135 M 245.709 138.624 C 244.160 140.173, 245.039 143.878, 247.112 144.535 C 250.057 145.470, 252.881 142.624, 251.381 140.231 C 250.227 138.390, 246.889 137.444, 245.709 138.624 M 96.200 141.200 C 94.512 142.888, 94.707 147.512, 96.530 149.025 C 99.244 151.277, 103 148.725, 103 144.628 C 103 140.314, 99.069 138.331, 96.200 141.200 M 163.603 141.833 C 163.320 142.291, 164.115 144.204, 165.369 146.083 C 171.010 154.536, 172.624 165.949, 169.468 175.072 C 165.895 185.403, 154.578 195.441, 142.816 198.711 C 139.437 199.650, 137 200.888, 137 201.664 C 137 203.303, 136.545 203.324, 143.068 201.388 C 156.153 197.506, 165.161 190.481, 170.213 180.218 C 173.233 174.084, 173.500 172.769, 173.495 164.021 C 173.491 155.556, 173.189 153.946, 170.769 149.500 C 166.562 141.769, 164.805 139.889, 163.603 141.833 M 238.200 143.200 C 236.811 144.589, 236.582 148, 237.878 148 C 238.360 148, 239.315 147.325, 240 146.500 C 240.685 145.675, 241.865 145, 242.622 145 C 243.380 145, 244 144.325, 244 143.500 C 244 141.686, 239.925 141.475, 238.200 143.200 M 196.040 144.452 C 193.383 147.653, 197.285 152.570, 200.750 150.388 C 204.212 148.207, 202.979 143, 199 143 C 198.035 143, 196.703 143.653, 196.040 144.452 M 106 146.817 C 106 148.137, 107.463 149.096, 111.338 150.317 C 116.886 152.066, 130 152.643, 130 151.139 C 130 150.665, 128.875 150.492, 127.500 150.755 C 126.125 151.018, 125 150.782, 125 150.230 C 125 149.678, 122.862 148.908, 120.250 148.518 C 117.638 148.129, 113.983 147.177, 112.128 146.405 C 107.618 144.526, 106 144.635, 106 146.817 M 224.389 149.430 C 223.393 152.025, 224.788 154.169, 227.246 153.820 C 228.898 153.585, 229.500 152.833, 229.500 151 C 229.500 149.167, 228.898 148.415, 227.246 148.180 C 225.893 147.988, 224.750 148.488, 224.389 149.430 M 242.389 148.924 C 237.906 149.658, 233 153.955, 233 157.146 C 233 159.865, 234.733 159.416, 237.986 155.854 C 240.622 152.968, 241.228 152.759, 245.334 153.322 C 250.202 153.989, 252.539 152.568, 251.410 149.627 C 250.758 147.926, 249.213 147.806, 242.389 148.924 M 103 152.391 C 103 155.010, 110.998 157.307, 121.500 157.704 C 132.685 158.127, 132.732 156.965, 121.607 155.067 C 117.816 154.421, 112.866 153.248, 110.607 152.460 C 105.400 150.646, 103 150.624, 103 152.391 M 96.667 153.667 C 95.331 155.002, 96.108 155.779, 101.831 158.829 C 111.714 164.097, 125.479 166.513, 131.500 164.037 C 134.268 162.899, 132.309 162.315, 123.256 161.577 C 116.114 160.995, 105.008 157.520, 100.741 154.531 C 98.313 152.830, 97.645 152.689, 96.667 153.667 M 183.640 158.130 C 185.945 172.521, 183.374 187.124, 176.853 196.680 C 173.468 201.641, 173.063 204.158, 176.091 201.417 C 179.311 198.503, 185.123 188.067, 186.626 182.500 C 189.308 172.566, 187.766 154.392, 184.140 153.205 C 183.037 152.844, 182.942 153.775, 183.640 158.130 M 197.852 154.481 C 197.549 154.784, 197.941 157.387, 198.722 160.266 C 200.501 166.821, 199.853 183.571, 197.572 190 C 191.229 207.870, 177.520 223.041, 160.019 231.558 C 156.159 233.437, 153 235.241, 153 235.567 C 153 236.648, 159.428 234.790, 164.500 232.242 C 184.010 222.443, 199.383 203.073, 203.067 183.647 C 205.168 172.567, 203.293 154.857, 199.951 154.224 C 199.099 154.063, 198.155 154.179, 197.852 154.481 M 240.508 160.750 C 237.994 165.235, 231 179.865, 231 180.641 C 231 180.838, 231.854 181, 232.899 181 C 234.278 181, 236.060 178.555, 239.411 172.068 C 242.768 165.568, 244.606 163.049, 246.160 162.818 C 251.236 162.062, 250.616 156, 245.463 156 C 243.769 156, 242.476 157.239, 240.508 160.750 M 225.487 159.043 C 224.624 161.760, 226.075 163.268, 229.135 162.835 C 230.902 162.585, 231.500 161.868, 231.500 160 C 231.500 156.560, 226.526 155.768, 225.487 159.043 M 63.040 159.452 C 60.383 162.653, 64.285 167.570, 67.750 165.388 C 71.212 163.207, 69.979 158, 66 158 C 65.035 158, 63.703 158.653, 63.040 159.452 M 227.409 169.508 C 226.643 172.558, 227.979 174.343, 230.644 173.830 C 233.527 173.275, 233.221 167.603, 230.285 167.185 C 228.601 166.946, 227.912 167.502, 227.409 169.508 M 244 169 C 244 170.333, 244.667 171, 246 171 C 247.333 171, 248 170.333, 248 169 C 248 167.667, 247.333 167, 246 167 C 244.667 167, 244 167.667, 244 169 M 149.658 180.478 C 141.863 187.363, 126.611 189.755, 111.877 186.404 C 105.199 184.885, 101.983 185.135, 104.913 186.946 C 108.081 188.904, 118.417 190.215, 127.669 189.833 C 136.123 189.483, 138.223 189.031, 142.661 186.603 C 145.499 185.050, 149.300 182.254, 151.107 180.390 C 155.299 176.065, 154.606 176.107, 149.658 180.478 M 26.390 179.426 C 25.462 181.845, 26.708 184, 29.035 184 C 30.732 184, 31.072 183.476, 30.816 181.259 C 30.461 178.183, 27.360 176.899, 26.390 179.426 M 85.200 179.200 C 82.614 181.786, 84.463 187.019, 87.950 186.985 C 90.204 186.962, 91.639 185.792, 92.399 183.355 C 93.618 179.446, 88.124 176.276, 85.200 179.200 M 239.362 179.500 C 238.569 181.564, 239.644 184, 241.346 184 C 243.348 184, 245.330 181.302, 244.643 179.513 C 243.894 177.559, 240.110 177.550, 239.362 179.500 M 225.989 186.021 C 224.594 188.628, 225.491 190, 228.590 190 C 231.486 190, 232.754 187.614, 230.989 185.487 C 229.272 183.418, 227.267 183.632, 225.989 186.021 M 92 189.291 C 92 191.787, 109.167 198.947, 115.250 198.988 C 116.213 198.995, 117 198.357, 117 197.571 C 117 196.696, 114.828 195.510, 111.399 194.514 C 108.318 193.618, 103.312 191.786, 100.274 190.443 C 94.060 187.694, 92 187.408, 92 189.291 M 230.596 193.306 C 229.498 194.109, 228.943 195.554, 229.155 197.056 C 229.446 199.117, 230.049 199.500, 233 199.500 C 235.893 199.500, 236.557 199.100, 236.827 197.195 C 237.180 194.705, 235.483 192, 233.569 192 C 232.916 192, 231.579 192.588, 230.596 193.306 M 120.861 195.405 C 119.360 198.700, 121.257 201.226, 124.914 200.801 C 127.145 200.541, 127.500 200.020, 127.500 197 C 127.500 193.928, 127.165 193.461, 124.758 193.184 C 122.631 192.939, 121.758 193.437, 120.861 195.405 M 433.295 199.097 C 429.363 200.246, 427 203.426, 427 207.568 C 427 211.551, 429.524 213.831, 435.671 215.399 C 438.627 216.153, 440.500 217.187, 440.500 218.065 C 440.500 220.141, 435.320 220.440, 432.407 218.531 C 429.716 216.768, 428.556 217.093, 426.973 220.051 C 425.407 222.977, 430.895 225.991, 437.795 225.996 C 442.087 225.999, 443.556 225.535, 445.545 223.545 C 450.806 218.285, 447.638 210.898, 439.500 209.451 C 435.085 208.665, 432.728 207.249, 433.570 205.887 C 434.460 204.447, 439.373 204.872, 441.842 206.602 C 443.966 208.089, 444.231 208.072, 445.533 206.352 C 447.528 203.719, 447.328 202.254, 444.750 200.621 C 441.569 198.606, 437.036 198.003, 433.295 199.097 M 472.500 199.412 C 462.278 203.955, 461.038 218.392, 470.346 224.491 C 476.530 228.543, 485.319 226.806, 488.974 220.810 C 492.062 215.745, 491.753 208.048, 488.297 203.941 C 485.545 200.671, 480.502 197.968, 477.282 198.039 C 476.302 198.061, 474.150 198.678, 472.500 199.412 M 562.757 199.221 C 561.416 200.228, 560.995 202.409, 560.777 209.479 C 560.507 218.246, 560.436 218.480, 557.780 219.411 C 555.627 220.166, 554.638 219.982, 553.030 218.527 C 551.281 216.945, 551 215.464, 551 207.845 L 551 199 547.409 199 L 543.818 199 544.159 209.483 C 544.495 219.803, 544.551 220.017, 547.771 223.233 C 550.708 226.166, 551.616 226.494, 556.653 226.445 C 561.686 226.395, 562.561 226.055, 565.165 223.142 C 568.031 219.934, 568.063 219.763, 567.783 209.209 C 567.484 197.915, 566.665 196.288, 562.757 199.221 M 647.020 199.752 C 645.106 200.713, 642.518 203.029, 641.270 204.898 C 635.581 213.414, 641.719 226.093, 651.657 226.352 C 660.350 226.578, 666.003 221.093, 665.996 212.438 C 665.992 206.330, 663.485 201.932, 658.717 199.670 C 654.236 197.544, 651.375 197.564, 647.020 199.752 M 729.021 199.116 C 724.728 200.829, 723 203.086, 723 206.981 C 723 211.414, 725.898 214.461, 731 215.391 C 735.432 216.199, 737.448 217.465, 736.569 218.888 C 735.561 220.520, 730.792 220.243, 728.161 218.400 C 726.054 216.924, 725.728 216.936, 723.939 218.555 C 721.002 221.213, 721.562 222.610, 726.533 225.016 C 731.993 227.659, 736.482 227.148, 740.971 223.371 C 747.007 218.292, 744.134 211.703, 734.998 209.674 C 731.368 208.868, 729.500 207.952, 729.500 206.977 C 729.500 205.185, 734.770 204.370, 736.322 205.922 C 738.155 207.755, 740.599 207.119, 742.035 204.435 C 743.626 201.462, 742.915 200.696, 737 199.009 C 732.836 197.822, 732.244 197.830, 729.021 199.116 M 509 212.500 L 509 226 519 226 L 529 226 529 223 L 529 220 522 220 L 515 220 515 209.500 L 515 199 512 199 L 509 199 509 212.500 M 582 202 C 582 204.833, 582.222 205, 586 205 L 590 205 590 215.500 L 590 226 593 226 L 596 226 596 215.500 L 596 205 600.500 205 C 604.833 205, 605 204.889, 605 202 L 605 199 593.500 199 L 582 199 582 202 M 618 212.500 L 618 226 621 226 L 624 226 624 212.500 L 624 199 621 199 L 618 199 618 212.500 M 682 212.500 L 682 226 685 226 L 688 226 688 218.371 L 688 210.742 694.090 218.371 C 699.169 224.734, 700.662 226, 703.090 226 L 706 226 706 212.437 L 706 198.873 702.750 199.187 L 699.500 199.500 699.207 206.131 L 698.914 212.761 693.207 206.632 C 686.460 199.385, 686.026 199.035, 683.750 199.015 C 682.169 199.001, 682 200.304, 682 212.500 M 222.046 204.445 C 221.386 205.240, 220.994 206.927, 221.173 208.195 C 221.425 209.974, 222.234 210.571, 224.716 210.811 C 227.454 211.076, 228.027 210.740, 228.577 208.548 C 229.709 204.038, 224.893 201.014, 222.046 204.445 M 473.881 206.007 C 472.991 206.527, 471.700 208.311, 471.012 209.970 C 469.952 212.530, 470.016 213.375, 471.434 215.540 C 474.944 220.897, 481.967 220.846, 484.020 215.449 C 486.559 208.770, 479.848 202.521, 473.881 206.007 M 648 207 C 645.350 209.650, 645.357 215.108, 648.013 217.512 C 650.864 220.092, 655.880 219.867, 658.156 217.056 C 663.715 210.190, 654.216 200.784, 648 207 M 161.500 211.487 C 157.100 214.465, 152.773 216.924, 151.885 216.951 C 150.997 216.978, 149.197 217.835, 147.885 218.855 C 146.573 219.875, 143.828 221.018, 141.785 221.394 C 139.742 221.770, 137.764 222.572, 137.391 223.177 C 136.915 223.947, 137.879 224.068, 140.605 223.580 C 150.890 221.739, 164.803 214.214, 169.872 207.750 C 172.192 204.792, 169.844 205.840, 161.500 211.487 M 173.011 207.487 C 172.303 208.340, 172.046 210.046, 172.407 211.487 C 172.902 213.460, 173.672 214, 175.984 214 C 179.627 214, 181.619 211.025, 180 208 C 178.739 205.643, 174.782 205.353, 173.011 207.487 M 326.105 208.373 C 324.568 210.225, 325.735 212.898, 328.360 213.542 C 329.537 213.830, 339.901 213.939, 351.392 213.783 C 369.330 213.540, 372.428 213.272, 373.301 211.886 C 373.861 210.998, 374.036 209.536, 373.691 208.636 C 373.135 207.187, 370.441 207, 350.154 207 C 331.950 207, 327.011 207.282, 326.105 208.373 M 800.309 208.636 C 799.964 209.536, 800.140 210.998, 800.699 211.886 C 801.579 213.282, 804.834 213.536, 824.813 213.768 C 847.328 214.030, 847.938 213.984, 849.024 211.954 C 849.856 210.401, 849.836 209.508, 848.947 208.436 C 847.973 207.263, 843.471 207, 824.346 207 C 803.596 207, 800.866 207.186, 800.309 208.636 M 72.410 210.375 C 71.211 213.498, 72.424 215.500, 75.514 215.500 C 78.165 215.500, 78.500 215.164, 78.500 212.500 C 78.500 209.969, 78.069 209.450, 75.744 209.183 C 73.986 208.981, 72.779 209.412, 72.410 210.375 M 217.163 212.879 C 215.092 214.191, 216.117 218.500, 218.500 218.500 C 220.043 218.500, 220.500 217.833, 220.500 215.583 C 220.500 212.463, 219.324 211.511, 217.163 212.879 M 166 215.967 C 163.258 218.246, 162.762 219.141, 163.708 220.096 C 164.657 221.054, 165.677 220.800, 168.470 218.908 C 171.806 216.647, 172.758 214.048, 170.500 213.362 C 169.950 213.194, 167.925 214.367, 166 215.967 M 88.416 218.357 C 87.203 221.518, 88.405 224.500, 90.891 224.500 C 94.001 224.500, 95.899 221.653, 94.393 219.250 C 92.970 216.981, 89.163 216.412, 88.416 218.357 M 157.163 220.878 C 156.427 221.345, 155.977 222.800, 156.163 224.113 C 156.416 225.902, 157.126 226.500, 159 226.500 C 160.874 226.500, 161.584 225.902, 161.837 224.113 C 162.126 222.072, 160.707 220.031, 159 220.031 C 158.725 220.031, 157.898 220.412, 157.163 220.878 M 208.727 224.964 C 196.339 236.494, 190.753 240.608, 180.500 245.754 C 176.100 247.962, 171.713 250.032, 170.750 250.353 C 167.329 251.495, 168.881 253.111, 172.750 252.436 C 182.589 250.720, 203.116 237.447, 208.247 229.484 C 210.115 226.586, 210.943 226.082, 213.091 226.539 C 216.044 227.166, 218.366 225.119, 217.440 222.704 C 216.219 219.522, 213.939 220.113, 208.727 224.964 M 129.527 222.616 C 127.700 224.443, 127.900 225.904, 130.174 227.338 C 133.670 229.543, 136.762 225.162, 133.800 222.200 C 132.211 220.611, 131.458 220.685, 129.527 222.616 M 107.341 223.036 C 109.949 224.686, 125 225.630, 125 224.143 C 125 223.466, 123.266 222.996, 120.750 222.991 C 118.412 222.987, 114.025 222.732, 111 222.427 C 106.572 221.979, 105.859 222.098, 107.341 223.036 M 95 226.868 C 95 231.102, 120.251 236.758, 133.792 235.556 C 143.370 234.706, 154 231.440, 154 229.346 C 154 227.612, 153.497 227.654, 141.500 230.377 C 129.311 233.143, 116.116 232.150, 102.675 227.454 C 94.288 224.524, 95 224.578, 95 226.868" stroke="none" fill="#46c4f3" fill-rule="evenodd"/></svg>