<svg xmlns="http://www.w3.org/2000/svg" width="284" height="266" viewBox="0 0 284 266" version="1.1"><path d="M 137.733 30.800 C 136.211 30.985, 135.194 31.505, 135.472 31.955 C 135.750 32.405, 135.348 33.296, 134.579 33.934 C 133.475 34.851, 132.840 34.612, 131.562 32.798 C 130.191 30.851, 129.797 30.729, 128.987 32 C 128.351 32.997, 128.025 33.081, 128.015 32.250 C 127.994 30.503, 123.457 30.686, 121.635 32.508 C 120.643 33.500, 119.904 33.654, 119.474 32.958 C 118.740 31.771, 114.950 35.605, 115.079 37.403 C 115.125 38.040, 115.370 37.976, 115.662 37.250 C 116.365 35.509, 118 35.684, 118 37.500 C 118 39.106, 119.191 39.476, 120.417 38.250 C 120.829 37.837, 121.467 37.473, 121.833 37.440 C 126.948 36.977, 133.777 35.552, 134.785 34.737 C 135.491 34.165, 137.374 33.735, 138.969 33.780 C 142.390 33.877, 145.099 31.477, 142.271 30.854 C 141.297 30.640, 139.255 30.615, 137.733 30.800 M 145.135 32.338 C 144.274 33.375, 144.640 33.992, 146.762 35.086 C 148.268 35.862, 149.759 36.848, 150.077 37.277 C 150.394 37.706, 151.127 37.016, 151.707 35.743 C 152.712 33.539, 152.590 33.441, 149.131 33.668 C 147.134 33.799, 146.287 33.670, 147.250 33.380 C 148.213 33.090, 149 32.436, 149 31.927 C 149 30.536, 146.401 30.812, 145.135 32.338 M 123.459 33.067 C 123.096 33.653, 123.014 34.348, 123.276 34.610 C 123.538 34.872, 124.019 34.392, 124.345 33.543 C 125.021 31.781, 124.445 31.471, 123.459 33.067 M 161 33.917 C 161 34.421, 161.563 35.043, 162.250 35.300 C 163.034 35.593, 162.754 36.028, 161.500 36.467 C 154.397 38.953, 153.562 38.634, 173 40.859 C 177.675 41.394, 182.850 42.115, 184.500 42.461 C 190.091 43.634, 180.820 39.209, 170.880 35.961 C 160.618 32.607, 161 32.686, 161 33.917 M 112 35 C 112 35.550, 112.423 36, 112.941 36 C 113.459 36, 114.160 35.550, 114.500 35 C 114.840 34.450, 114.416 34, 113.559 34 C 112.702 34, 112 34.450, 112 35 M 108 36.282 C 108 36.987, 109.180 37.661, 110.621 37.781 C 112.847 37.965, 113.055 37.771, 111.999 36.499 C 110.477 34.665, 108 34.530, 108 36.282 M 101.250 37.662 C 99.485 38.374, 99.690 41.667, 101.500 41.667 C 102.325 41.667, 103.034 41.404, 103.077 41.083 C 103.119 40.763, 103.304 39.712, 103.488 38.750 C 103.830 36.961, 103.448 36.775, 101.250 37.662 M 104.755 39.500 C 104.222 42.292, 104.664 42.458, 108.622 40.954 L 111.375 39.907 108.573 38.454 C 105.053 36.627, 105.318 36.554, 104.755 39.500 M 152.500 38 C 152.160 38.550, 152.359 39, 152.941 39 C 153.523 39, 154 38.550, 154 38 C 154 37.450, 153.802 37, 153.559 37 C 153.316 37, 152.840 37.450, 152.500 38 M 122.250 59.083 C 119.943 59.957, 119.105 61.199, 121.125 60.750 C 121.744 60.612, 122.469 61.101, 122.737 61.836 C 123.087 62.796, 122.420 63.078, 120.367 62.836 C 118.102 62.570, 117.509 62.897, 117.505 64.417 C 117.502 65.679, 118.253 66.390, 119.704 66.497 C 120.916 66.586, 121.686 66.300, 121.415 65.862 C 121.144 65.424, 121.795 64.520, 122.861 63.854 C 124.025 63.128, 124.566 62.015, 124.213 61.072 C 123.705 59.714, 123.855 59.687, 125.313 60.872 C 126.241 61.627, 127 61.795, 127 61.245 C 127 59.332, 124.544 58.214, 122.250 59.083 M 89.286 67.794 C 85.416 72.609, 79.743 83.776, 80.525 85.040 C 81.843 87.174, 83.213 85.644, 86.560 78.299 C 88.490 74.063, 91.202 69.113, 92.586 67.299 C 96.220 62.535, 93.141 62.997, 89.286 67.794 M 100.683 77.057 C 99.768 78.126, 99.193 79, 99.405 79 C 99.617 79, 98.937 81.740, 97.895 85.089 C 95.529 92.692, 95.343 107.426, 97.521 114.760 C 99.823 122.511, 106.592 131.887, 113 136.201 C 118.624 139.986, 126 142.205, 126 140.111 C 126 139.500, 125.400 139, 124.666 139 C 122.712 139, 112.242 131.438, 109.157 127.797 C 102.312 119.723, 99.853 112.526, 99.819 100.478 C 99.798 92.819, 101.160 86.568, 104.106 80.792 C 105.940 77.198, 105.942 77.039, 104.175 76.094 C 102.785 75.350, 101.947 75.581, 100.683 77.057 M 123.118 79.603 C 114.930 88.905, 112.693 101.978, 117.603 111.832 C 120.805 118.256, 123.688 120.503, 137.662 127.464 C 155.828 136.513, 162.071 144.022, 162.133 156.898 C 162.184 167.656, 157.052 175.167, 146.250 180.142 C 139.383 183.304, 137.588 186.408, 143.250 185.332 C 147.998 184.430, 151.661 182.354, 156.699 177.710 C 163.796 171.168, 165.484 167.096, 165.493 156.500 C 165.499 148.369, 165.211 146.979, 162.508 142.098 C 158.477 134.819, 153.663 131.046, 139.478 124.050 C 125.491 117.152, 123.950 115.986, 120.986 110.059 C 116.668 101.426, 118.613 90.845, 126.549 79.799 C 131.069 73.507, 128.608 73.367, 123.118 79.603 M 76.551 91.708 C 75.155 95.304, 74.774 106.718, 75.877 111.864 C 77.983 121.682, 81.727 127.925, 91.099 137.250 C 95.937 142.063, 100.368 146, 100.947 146 C 103.386 146, 101.547 143.170, 94.168 135.568 C 86.193 127.352, 80.215 117.488, 81.377 114.460 C 81.722 113.561, 81.557 113.156, 80.989 113.507 C 80.445 113.843, 80 113.442, 80 112.616 C 80 111.653, 80.717 111.253, 82 111.500 C 83.881 111.862, 84 111.347, 84 102.869 C 84 94.822, 83.812 93.889, 82.250 94.186 C 80.821 94.458, 80.388 95.986, 79.889 102.510 L 79.278 110.500 79.340 100.567 C 79.378 94.306, 79.003 90.501, 78.324 90.275 C 77.731 90.077, 76.933 90.722, 76.551 91.708 M 91.218 93.640 C 89.948 97.780, 90.286 106.634, 91.951 112.816 C 92.766 115.846, 93.596 117, 94.958 117 C 96.656 117, 96.734 116.636, 95.762 113.250 C 95.169 111.188, 94.643 105.114, 94.592 99.754 C 94.494 89.395, 93.226 87.097, 91.218 93.640 M 85.421 96.344 C 84.462 98.845, 85.399 102.500, 87 102.500 C 88.041 102.500, 88.500 101.454, 88.500 99.083 C 88.500 95.538, 86.436 93.701, 85.421 96.344 M 92.509 104.252 C 92.725 109.066, 93.381 113.791, 93.965 114.752 C 94.818 116.155, 94.901 115.944, 94.388 113.681 C 94.036 112.131, 93.381 107.406, 92.931 103.181 L 92.114 95.500 92.509 104.252 M 121.630 100.250 C 120.674 103.818, 120.890 105, 122.500 105 C 123.548 105, 124 103.944, 124 101.500 C 124 97.573, 122.552 96.809, 121.630 100.250 M 199.667 103.667 C 199.300 104.033, 199 104.798, 199 105.367 C 199 105.993, 199.466 105.934, 200.183 105.217 C 200.834 104.566, 201.134 103.801, 200.850 103.517 C 200.566 103.233, 200.033 103.300, 199.667 103.667 M 87.079 114.583 C 87.127 115.748, 87.364 115.985, 87.683 115.188 C 87.972 114.466, 87.936 113.603, 87.604 113.271 C 87.272 112.939, 87.036 113.529, 87.079 114.583 M 129 115.878 C 129 116.360, 129.563 117.210, 130.250 117.766 C 132.872 119.887, 158.095 132.239, 158.657 131.677 C 160.224 130.109, 157.169 127.839, 145.215 121.686 C 132.814 115.304, 129 113.937, 129 115.878 M 88.733 118.124 C 89.412 118.808, 90.219 119.115, 90.526 118.807 C 90.834 118.499, 90.279 117.940, 89.293 117.564 C 87.868 117.022, 87.753 117.136, 88.733 118.124 M 191 127.378 C 191 127.585, 191.787 128.373, 192.750 129.128 C 194.336 130.371, 194.371 130.336, 193.128 128.750 C 191.821 127.084, 191 126.555, 191 127.378 M 228.577 128.875 C 228.280 129.356, 229.145 129.750, 230.500 129.750 C 231.855 129.750, 232.720 129.356, 232.423 128.875 C 232.125 128.394, 231.260 128, 230.500 128 C 229.740 128, 228.875 128.394, 228.577 128.875 M 171 132.500 C 172.866 134.425, 174.617 136, 174.892 136 C 175.167 136, 173.866 134.425, 172 132.500 C 170.134 130.575, 168.383 129, 168.108 129 C 167.833 129, 169.134 130.575, 171 132.500 M 230 131.500 C 230 132.367, 230.595 132.709, 231.500 132.362 C 232.325 132.045, 233 131.657, 233 131.500 C 233 131.343, 232.325 130.955, 231.500 130.638 C 230.595 130.291, 230 130.633, 230 131.500 M 162.522 137.965 C 162.194 138.496, 163.020 140.633, 164.358 142.715 C 167.928 148.270, 169.278 153.485, 168.812 159.929 C 167.964 171.644, 159.104 182.056, 146.761 185.840 C 142.584 187.121, 140.384 188.343, 140.152 189.510 C 139.851 191.021, 140.327 191.168, 143.652 190.586 C 150.159 189.447, 159.432 184.314, 164.209 179.208 C 174.735 167.955, 175.821 152.387, 166.948 139.927 C 164.778 136.879, 163.534 136.328, 162.522 137.965 M 114.525 141.959 C 113.429 143.733, 114.890 144.890, 120.224 146.474 C 127.766 148.714, 135 148.365, 135 145.761 C 135 145.140, 133.394 144.952, 130.917 145.284 C 128.672 145.585, 127.110 145.557, 127.446 145.220 C 127.783 144.884, 126.132 144.104, 123.779 143.488 C 121.425 142.871, 118.525 142.040, 117.334 141.642 C 116.106 141.232, 114.890 141.369, 114.525 141.959 M 175.054 145 C 175.041 145.825, 175.679 148.300, 176.471 150.500 C 177.264 152.700, 177.896 155.850, 177.877 157.500 C 177.837 160.940, 177.433 160.112, 176.537 154.750 C 175.582 149.041, 174.101 150.276, 174.132 156.754 C 174.147 159.919, 173.511 164.392, 172.718 166.693 C 171.906 169.048, 171.655 171.255, 172.142 171.742 C 172.629 172.229, 172.326 173.458, 171.449 174.554 C 169.949 176.425, 169.931 176.414, 170.980 174.250 C 172.736 170.626, 170.633 171.669, 168.610 175.425 C 165.963 180.342, 162.421 183.411, 154.835 187.363 C 151.169 189.273, 148.385 191.052, 148.649 191.316 C 148.914 191.580, 146.787 192.574, 143.925 193.525 C 137.623 195.618, 121.996 195.133, 115.196 192.633 C 110.289 190.829, 108.230 191.554, 106.230 195.791 C 105.260 197.848, 105.265 198.567, 106.253 199.258 C 107.021 199.796, 106.587 199.873, 105.125 199.458 C 103.688 199.052, 102.986 199.168, 103.348 199.753 C 103.677 200.286, 106.687 201.490, 110.037 202.430 C 114.849 203.781, 116.434 203.885, 117.588 202.927 C 118.391 202.260, 119.337 202.004, 119.691 202.357 C 120.044 202.711, 119.733 203, 119 203 C 118.267 203, 117.954 203.287, 118.305 203.638 C 118.656 203.989, 123.118 204.400, 128.221 204.552 C 137.480 204.828, 150.509 202.632, 149.481 200.970 C 149.212 200.533, 151.075 199.011, 153.621 197.588 C 158.772 194.709, 160.396 194.233, 157.441 196.468 C 154.964 198.342, 156.292 198.418, 159.800 196.603 C 162.998 194.949, 174 183.646, 174 182.015 C 174 181.392, 173.613 181.121, 173.141 181.413 C 172.668 181.705, 173.230 179.519, 174.391 176.555 C 175.551 173.590, 176.636 171.536, 176.802 171.989 C 176.969 172.443, 176.400 174.500, 175.539 176.560 C 173.642 181.101, 174.253 182.346, 176.369 178.253 C 178.952 173.259, 180.235 163.174, 179.138 156.491 C 178.182 150.660, 175.102 141.997, 175.054 145 M 122.750 145.662 C 123.438 145.940, 124.563 145.940, 125.250 145.662 C 125.938 145.385, 125.375 145.158, 124 145.158 C 122.625 145.158, 122.063 145.385, 122.750 145.662 M 172.032 145.668 C 171.980 147.568, 173.145 150, 174.107 150 C 175.418 150, 175.199 148.645, 173.532 146.441 C 172.724 145.374, 172.049 145.026, 172.032 145.668 M 106.667 148.667 C 105.374 149.959, 106.021 151.129, 107.750 150.623 C 108.713 150.342, 111.975 151.416, 115 153.009 C 118.025 154.602, 120.148 155.927, 119.717 155.953 C 119.286 155.979, 116.654 154.845, 113.867 153.433 C 108.520 150.723, 106.274 150.639, 110.337 153.301 C 113.767 155.549, 122.717 158.323, 124.424 157.668 C 125.220 157.362, 126.033 157.600, 126.232 158.197 C 126.474 158.921, 128.494 159.044, 132.310 158.567 C 135.872 158.122, 137.785 157.460, 137.384 156.812 C 137.021 156.225, 135.052 155.998, 132.870 156.291 C 130.742 156.576, 129 156.403, 129 155.905 C 129 155.407, 127.945 155, 126.657 155 C 123.767 155, 113.416 151.502, 110.339 149.486 C 107.755 147.793, 107.579 147.754, 106.667 148.667 M 179.610 151.750 C 179.996 153.813, 180.653 156.625, 181.070 158 C 181.769 160.305, 181.845 160.227, 182.050 157 C 182.222 154.290, 182.375 154.041, 182.725 155.899 C 182.974 157.219, 182.620 159.341, 181.938 160.615 C 180.948 162.466, 180.953 163.239, 181.964 164.457 C 183.373 166.154, 182.685 173.453, 180.876 176 C 180.013 177.216, 179.933 177.129, 180.453 175.545 C 180.806 174.470, 181.297 171.545, 181.545 169.045 C 181.952 164.942, 181.824 165.134, 180.227 171.022 C 178.529 177.280, 174.057 186.229, 171.988 187.507 C 170.493 188.432, 170.805 191, 172.413 191 C 174.432 191, 179.636 183.552, 182.162 177.048 C 183.799 172.832, 184.315 169.339, 184.312 162.500 C 184.308 152.882, 183.017 148, 180.479 148 C 179.207 148, 179.042 148.711, 179.610 151.750 M 133.245 151.250 C 133.878 153.173, 138 153.450, 138 151.570 C 138 150.549, 137.097 150, 135.417 150 C 133.797 150, 132.987 150.466, 133.245 151.250 M 154.500 167.256 C 153.308 169.151, 150.104 171.661, 146.573 173.468 C 139.223 177.228, 127.417 178.152, 118.843 175.639 C 112.993 173.924, 109.911 174.962, 113.338 177.492 C 118.429 181.252, 137.463 181.663, 145 178.177 C 149.233 176.219, 158 167.702, 158 165.548 C 158 163.138, 156.687 163.779, 154.500 167.256 M 204.960 168.500 C 204.905 171.250, 204.433 174.400, 203.912 175.500 C 203.232 176.935, 203.097 176.016, 203.435 172.250 C 203.798 168.206, 203.586 167, 202.514 167 C 201.603 167, 200.920 168.640, 200.536 171.750 C 199.353 181.324, 197.708 187.503, 195.346 191.244 C 194.016 193.351, 193.178 195.479, 193.483 195.973 C 194.215 197.156, 183.721 207.805, 178 211.686 C 172.421 215.471, 162.130 220.307, 155.470 222.275 C 148.595 224.307, 126.799 223.848, 123.154 221.595 C 122.519 221.203, 122 221.428, 122 222.096 C 122 222.849, 121.241 222.623, 120 221.500 C 118.471 220.116, 117.996 220.021, 117.985 221.095 C 117.972 222.281, 117.833 222.285, 117.096 221.122 C 116.616 220.364, 115.723 220.053, 115.112 220.431 C 114.500 220.809, 114 220.656, 114 220.090 C 114 219.525, 113.383 219.300, 112.629 219.589 C 111.875 219.878, 110.627 219.527, 109.855 218.808 C 109.084 218.088, 108.013 217.425, 107.476 217.333 C 104.558 216.835, 103.434 216.409, 102.830 215.570 C 102.461 215.059, 101.465 214.539, 100.616 214.414 C 98.662 214.127, 93 210.135, 93 209.043 C 93 208.592, 92.213 208.285, 91.250 208.361 C 90.278 208.438, 89.622 207.911, 89.775 207.176 C 89.926 206.447, 89.629 206.111, 89.116 206.428 C 88.602 206.746, 86.951 205.542, 85.445 203.753 C 83.940 201.964, 82.212 200.480, 81.604 200.455 C 80.997 200.430, 80.624 199.834, 80.775 199.130 C 80.926 198.427, 80.608 198.124, 80.069 198.458 C 79.529 198.791, 78.341 197.924, 77.429 196.532 C 76.517 195.139, 75.259 193.978, 74.635 193.951 C 74.011 193.925, 71.495 191.450, 69.044 188.451 C 65.514 184.132, 63.988 183, 61.696 183 L 58.802 183 60.942 186.626 C 62.119 188.620, 62.869 190.464, 62.610 190.723 C 62.174 191.159, 58 183.750, 58 182.540 C 58 182.243, 59.575 182, 61.500 182 C 63.425 182, 65 181.662, 65.001 181.250 C 65.001 180.838, 63.313 180.545, 61.251 180.600 C 55.888 180.744, 56.006 182.994, 61.876 192.500 C 69.982 205.628, 87.151 221.558, 91.866 220.325 C 93.473 219.904, 93.887 220.130, 93.476 221.201 C 92.841 222.856, 97.512 225.419, 99.229 224.358 C 99.823 223.991, 100.037 224.132, 99.704 224.670 C 98.369 226.830, 122.034 234.968, 125.634 233.587 C 126.385 233.299, 127 233.499, 127 234.031 C 127 234.594, 131.348 235, 137.372 235 C 148.427 235, 165.682 231.496, 168.900 228.598 C 169.780 227.805, 171.734 226.848, 173.243 226.471 C 174.752 226.095, 175.769 225.436, 175.504 225.007 C 175.239 224.578, 175.805 223.613, 176.761 222.863 C 178.335 221.630, 178.370 221.666, 177.128 223.250 C 175.671 225.108, 176.584 225.549, 178.878 224.096 C 179.681 223.588, 179.930 222.695, 179.474 221.957 C 178.966 221.136, 179.094 220.940, 179.837 221.399 C 181.132 222.200, 185.920 219.081, 185.969 217.405 C 186.016 215.746, 189.737 212.719, 190.869 213.419 C 191.416 213.757, 192.578 213.013, 193.451 211.767 C 194.324 210.520, 195.268 209.624, 195.549 209.776 C 195.830 209.928, 197.809 208.032, 199.946 205.562 C 202.684 202.399, 203.703 200.398, 203.395 198.786 C 203.012 196.780, 203.064 196.739, 203.813 198.451 C 204.540 200.112, 205.143 199.466, 207.871 194.098 C 210.201 189.513, 210.787 187.449, 210.022 186.526 C 209.291 185.645, 209.286 184.531, 210.008 182.879 C 211.009 180.585, 211.027 180.599, 210.504 183.250 C 210.206 184.762, 210.358 186, 210.843 186 C 211.693 186, 214 176.463, 214 172.950 C 214 172.006, 213.100 170.998, 212 170.710 C 210.598 170.344, 209.995 170.682, 209.985 171.844 C 209.971 173.278, 209.840 173.299, 209 172 C 208.271 170.872, 208.023 171.369, 208 174 C 207.977 176.608, 207.726 177.118, 207.016 176 C 206.492 175.175, 206.324 172.861, 206.642 170.859 C 206.960 168.856, 206.735 166.381, 206.141 165.359 C 205.258 163.839, 205.042 164.412, 204.960 168.500 M 177.158 168 C 177.158 169.375, 177.385 169.938, 177.662 169.250 C 177.940 168.563, 177.940 167.438, 177.662 166.750 C 177.385 166.063, 177.158 166.625, 177.158 168 M 173.624 168.539 C 172.659 171.053, 172.943 171.702, 174.122 169.675 C 174.706 168.671, 174.973 167.639, 174.715 167.382 C 174.458 167.124, 173.966 167.645, 173.624 168.539 M 208.079 168.583 C 208.127 169.748, 208.364 169.985, 208.683 169.188 C 208.972 168.466, 208.936 167.603, 208.604 167.271 C 208.272 166.939, 208.036 167.529, 208.079 168.583 M 221.050 168.906 C 220.473 169.985, 220 171.348, 220 171.934 C 220 173.586, 222.600 173.192, 224.128 171.308 C 225.299 169.864, 225.292 169.741, 224.080 170.472 C 223.021 171.111, 222.819 170.913, 223.286 169.696 C 224.208 167.294, 222.278 166.612, 221.050 168.906 M 97.625 172.708 C 97.311 173.022, 97.294 173.666, 97.586 174.139 C 98.288 175.275, 101 175.250, 101 174.107 C 101 173.003, 98.405 171.928, 97.625 172.708 M 210.429 174.428 C 210.094 175.763, 210.208 177.549, 210.682 178.397 C 211.280 179.466, 211.545 178.720, 211.545 175.970 C 211.545 171.388, 211.283 171.025, 210.429 174.428 M 82 185.500 C 83.292 186.875, 84.574 188, 84.849 188 C 85.124 188, 84.292 186.875, 83 185.500 C 81.708 184.125, 80.426 183, 80.151 183 C 79.876 183, 80.708 184.125, 82 185.500 M 170 184.022 C 170 184.585, 167.637 187.360, 164.750 190.189 C 159.894 194.946, 159.818 195.089, 163.731 192.097 C 168.285 188.615, 172.814 183, 171.068 183 C 170.481 183, 170 183.460, 170 184.022 M 201.250 184.360 C 200.012 184.973, 199 185.833, 199 186.272 C 199 187.236, 202.637 185.396, 203.503 183.995 C 203.841 183.448, 203.979 183.055, 203.809 183.123 C 203.639 183.190, 202.488 183.747, 201.250 184.360 M 154.441 189.555 C 152.577 191.049, 152.589 191.067, 154.750 190.020 C 155.988 189.420, 157 188.720, 157 188.465 C 157 187.700, 156.481 187.921, 154.441 189.555 M 63.877 193.500 C 65.262 196.465, 70.922 203.364, 72.834 204.418 C 73.750 204.923, 72.700 203.348, 70.500 200.918 C 68.300 198.488, 65.700 195.375, 64.721 194 C 63.654 192.501, 63.316 192.300, 63.877 193.500 M 161 197.082 C 156.875 199.785, 152.970 201.998, 152.321 201.999 C 151.673 201.999, 150.536 202.606, 149.795 203.348 C 149.054 204.089, 146.694 205.110, 144.551 205.617 C 142.407 206.124, 140.446 207.162, 140.192 207.924 C 139.440 210.180, 148.560 208.456, 155.592 205.013 C 162.271 201.743, 171.338 194.356, 170.445 192.911 C 169.602 191.546, 169.123 191.758, 161 197.082 M 214.639 192.694 C 213.444 193.889, 213.994 196, 215.500 196 C 216.325 196, 217 195.352, 217 194.559 C 217 192.888, 215.573 191.761, 214.639 192.694 M 152 199.500 C 150.398 200.416, 150.060 200.942, 151.059 200.965 C 151.916 200.984, 153.491 200.339, 154.559 199.532 C 157.045 197.652, 155.272 197.630, 152 199.500 M 174.953 204.274 C 171.171 207.752, 165.585 211.529, 160.904 213.774 C 153.348 217.397, 151.208 219.810, 156.093 219.199 C 162.669 218.376, 177.014 209.033, 183.267 201.500 L 185.757 198.500 183.494 198.500 C 182.129 198.500, 178.739 200.792, 174.953 204.274 M 166.181 200.999 C 164.555 202.355, 164.118 203.388, 164.718 204.460 C 165.483 205.828, 165.804 205.826, 167.786 204.437 C 169.004 203.584, 170 202.012, 170 200.943 C 170 198.522, 169.138 198.535, 166.181 200.999 M 141.813 201.683 C 142.534 201.972, 143.397 201.936, 143.729 201.604 C 144.061 201.272, 143.471 201.036, 142.417 201.079 C 141.252 201.127, 141.015 201.364, 141.813 201.683 M 165.872 202.750 C 164.603 204.369, 164.650 204.390, 166.500 203.033 C 167.600 202.226, 168.688 201.439, 168.917 201.283 C 169.146 201.127, 168.863 201, 168.289 201 C 167.715 201, 166.627 201.787, 165.872 202.750 M 210.566 201.953 C 209.138 202.472, 208.965 202.860, 209.904 203.440 C 210.602 203.872, 211.668 203.732, 212.270 203.130 C 213.746 201.654, 212.934 201.094, 210.566 201.953 M 136.269 202.693 C 137.242 202.947, 138.592 202.930, 139.269 202.656 C 139.946 202.382, 139.150 202.175, 137.500 202.195 C 135.850 202.215, 135.296 202.439, 136.269 202.693 M 98 205.929 C 98 207.052, 100.836 210, 101.916 210 C 102.342 210, 103.453 209.157, 104.385 208.127 C 105.992 206.352, 105.960 206.222, 103.790 205.641 C 100.447 204.745, 98 204.867, 98 205.929 M 100 207.094 C 100 207.592, 100.900 208, 102 208 C 103.100 208, 104 207.827, 104 207.617 C 104 207.406, 103.100 206.998, 102 206.710 C 100.900 206.423, 100 206.595, 100 207.094 M 114 207.376 C 114 208.278, 116.422 209.116, 121.309 209.905 C 128.461 211.058, 132 210.713, 132 208.862 C 132 207.564, 130.567 207.247, 121.750 206.597 C 115.628 206.146, 114 206.309, 114 207.376 M 195 214.124 C 189.424 219.349, 184.870 222.462, 177.250 226.256 C 171.613 229.063, 167 231.954, 167 232.680 C 167 234.201, 170.585 234.480, 171.482 233.029 C 171.812 232.496, 175.551 230.243, 179.791 228.024 C 184.031 225.805, 190.404 221.517, 193.954 218.495 C 197.503 215.473, 200.901 213, 201.504 213 C 203.382 213, 204.791 210.918, 204.268 208.916 C 203.992 207.862, 203.482 207.021, 203.133 207.047 C 202.785 207.073, 199.125 210.258, 195 214.124 M 109 211 C 109.825 211.533, 110.950 211.969, 111.500 211.969 C 112.050 211.969, 111.825 211.533, 111 211 C 110.175 210.467, 109.050 210.031, 108.500 210.031 C 107.950 210.031, 108.175 210.467, 109 211 M 206.507 210.989 C 206.157 211.555, 206.558 211.723, 207.448 211.382 C 209.180 210.717, 209.497 210, 208.059 210 C 207.541 210, 206.843 210.445, 206.507 210.989 M 79.026 211.316 C 80.521 212.935, 87.239 216.992, 86.046 215.555 C 85.276 214.627, 83.263 213.166, 81.573 212.307 C 79.883 211.448, 78.737 211.002, 79.026 211.316 M 188.200 215.200 C 186.288 217.112, 186.810 218.135, 189 216.768 C 191.020 215.506, 191.673 214, 190.200 214 C 189.760 214, 188.860 214.540, 188.200 215.200 M 101.733 225.124 C 102.412 225.808, 103.219 226.115, 103.526 225.807 C 103.834 225.499, 103.279 224.940, 102.293 224.564 C 100.868 224.022, 100.753 224.136, 101.733 225.124 M 105 226.577 C 105 227.252, 110.195 229.139, 110.690 228.644 C 110.917 228.417, 109.729 227.753, 108.051 227.168 C 106.373 226.583, 105 226.317, 105 226.577 M 166 228 C 165.099 228.582, 164.975 228.975, 165.691 228.985 C 166.346 228.993, 167.160 228.550, 167.500 228 C 168.267 226.758, 167.921 226.758, 166 228 M 114.813 229.683 C 115.534 229.972, 116.397 229.936, 116.729 229.604 C 117.061 229.272, 116.471 229.036, 115.417 229.079 C 114.252 229.127, 114.015 229.364, 114.813 229.683 M 118.813 230.683 C 119.534 230.972, 120.397 230.936, 120.729 230.604 C 121.061 230.272, 120.471 230.036, 119.417 230.079 C 118.252 230.127, 118.015 230.364, 118.813 230.683 M 122.813 231.683 C 123.534 231.972, 124.397 231.936, 124.729 231.604 C 125.061 231.272, 124.471 231.036, 123.417 231.079 C 122.252 231.127, 122.015 231.364, 122.813 231.683" stroke="none" fill="#1f598b" fill-rule="evenodd"/><path d="M 115.500 20.026 C 106.364 22.077, 94.804 26.094, 87.500 29.753 C 64.974 41.040, 42.502 64.830, 33.153 87.288 C 27.032 101.989, 25.840 108.545, 25.284 130.539 C 24.714 153.091, 26.048 162.854, 31.883 178.842 C 45.139 215.165, 79.192 244.203, 118.315 252.547 C 127.216 254.445, 144.198 254.393, 155.500 252.433 C 207.102 243.484, 244.289 204.188, 251.960 150.500 C 253.292 141.179, 253.273 129.287, 251.924 128.453 C 251.333 128.088, 248.475 128.085, 245.573 128.448 L 240.297 129.107 239.668 139.397 C 239.064 149.271, 237.222 160.167, 234.774 168.352 C 233.759 171.746, 233.475 172.003, 232.387 170.514 C 230.684 168.186, 227.573 169.003, 227.164 171.886 C 226.862 174.012, 227.141 174.206, 229.914 173.799 C 231.611 173.550, 233.002 173.606, 233.004 173.923 C 233.021 176.607, 221.688 196.267, 216.209 203.059 C 190.248 235.241, 144.759 249.060, 107.581 236.061 C 95.991 232.009, 79.022 221.636, 69.180 212.588 C 59.781 203.947, 49.017 187.310, 44.044 173.739 C 38.813 159.463, 36.224 141.179, 37.582 128.105 L 38.373 120.500 39.080 127.009 C 40 135.470, 43.730 144.501, 49.284 151.718 C 54.697 158.753, 82.504 185.963, 90.813 192.356 C 94.121 194.901, 98.103 197.498, 99.663 198.127 C 103.032 199.484, 108.045 200.264, 106.243 199.150 C 105.265 198.545, 105.262 197.844, 106.230 195.791 C 108.241 191.532, 110.295 190.822, 115.196 192.695 C 121.499 195.104, 141.218 195.140, 146 192.752 L 149.500 191.005 146 191.532 C 128.908 194.106, 116.955 192.663, 105.518 186.647 C 95.970 181.624, 60.426 146.676, 55.957 137.916 C 48.255 122.819, 47.629 105.726, 54.091 87.003 C 61.525 65.468, 75.639 49.785, 96.253 40.155 C 104.165 36.458, 103.918 36.506, 103.488 38.750 C 103.304 39.712, 103.119 41.011, 103.077 41.636 C 103.034 42.261, 99.762 44.696, 95.805 47.047 C 82.483 54.961, 71.033 68.477, 64.785 83.662 C 61.707 91.144, 61.559 92.112, 61.530 105 L 61.500 118.500 65.290 126.500 C 68.692 133.683, 70.550 135.941, 83.480 148.617 C 104.803 169.518, 111.067 173.007, 128.360 173.615 C 139.557 174.008, 145.760 172.143, 150.338 167.005 C 153.210 163.782, 156.412 158, 155.326 158 C 154.927 158, 155.140 157.460, 155.800 156.800 C 157.261 155.339, 157.393 149.361, 155.984 148.490 C 155.425 148.144, 155.176 147.525, 155.430 147.113 C 156.247 145.791, 151.612 139.165, 147.999 136.489 C 146.075 135.063, 139.925 131.703, 134.333 129.021 C 116.828 120.625, 111.361 113.614, 112.227 100.673 C 112.871 91.049, 115.845 85.060, 124.122 76.721 C 134.817 65.946, 147.778 61, 165.316 61 C 177.453 61, 184.620 62.730, 196.780 68.597 C 205.250 72.683, 217.519 81.672, 220.807 86.200 C 222.398 88.391, 225.847 88.561, 226.643 86.487 C 227.453 84.378, 219.911 74.891, 213.098 69.450 C 204.980 62.966, 191.086 56.462, 181.027 54.435 C 170.528 52.320, 151.218 52.878, 143.500 55.519 C 124.973 61.860, 112.840 71.676, 106.283 85.628 C 102.892 92.846, 102.581 94.250, 102.542 102.518 C 102.504 110.738, 102.791 112.127, 105.792 118.226 C 110.082 126.945, 114.702 130.829, 129.500 138.156 C 143.578 145.127, 146.125 147.288, 146.368 152.466 C 146.514 155.567, 145.970 156.697, 143.130 159.191 C 139.812 162.104, 139.473 162.178, 131.108 161.829 C 117.382 161.255, 108.228 155.882, 89.829 137.602 C 78.271 126.118, 73.738 116.028, 73.837 102 C 74.001 78.512, 93.789 52.838, 119.359 42.936 C 126.743 40.077, 135.642 38.050, 133.152 39.795 C 131.145 41.201, 132.189 44.453, 134.765 44.820 C 137.766 45.248, 138.738 42.473, 136.466 39.963 C 134.743 38.058, 134.771 38, 137.416 38 C 138.916 38, 140.818 38.675, 141.643 39.500 C 143.541 41.398, 145.898 41.428, 146.614 39.563 C 146.917 38.773, 147.803 38.371, 148.583 38.670 C 149.362 38.969, 150.787 38.894, 151.750 38.503 C 152.713 38.112, 155.168 37.653, 157.207 37.482 C 161.867 37.091, 163.735 36.072, 161.886 34.929 C 155.836 31.190, 176.195 36.856, 183.720 41.006 C 187.325 42.994, 187.361 43.062, 184.500 42.486 C 182.850 42.153, 176.252 41.648, 169.838 41.364 C 151.706 40.559, 134.392 44.562, 123.240 52.138 C 117.506 56.033, 106.175 67.424, 103.723 71.759 C 102.004 74.797, 102.009 74.934, 103.858 75.924 C 105.473 76.788, 106.158 76.359, 108.279 73.154 C 112.462 66.833, 117.711 62.454, 120.644 62.836 C 122.464 63.073, 123.081 62.779, 122.737 61.836 C 122.469 61.101, 121.710 60.624, 121.051 60.775 C 119.023 61.239, 120.840 59.275, 122.948 58.724 C 124.036 58.439, 125.436 58.821, 126.059 59.571 C 127.002 60.707, 127.995 60.529, 131.971 58.515 C 139.221 54.841, 151.375 51.978, 162.500 51.324 C 173.867 50.655, 184.522 52.739, 197.840 58.233 C 208.149 62.487, 220.146 71.627, 224.640 78.652 C 229.184 85.754, 234.445 97.249, 236.578 104.734 C 237.482 107.905, 238.509 110.805, 238.861 111.179 C 239.671 112.039, 249.106 110.294, 250.346 109.054 C 251.777 107.623, 246.582 92.234, 240.948 81.210 C 224.274 48.589, 195.619 27.022, 159 19.535 C 148.580 17.405, 126.038 17.659, 115.500 20.026 M 137.733 30.800 C 136.211 30.985, 135.194 31.505, 135.472 31.955 C 135.750 32.405, 135.348 33.296, 134.579 33.934 C 133.475 34.851, 132.840 34.612, 131.562 32.798 C 130.191 30.851, 129.797 30.729, 128.987 32 C 128.351 32.997, 128.025 33.081, 128.015 32.250 C 127.994 30.503, 123.457 30.686, 121.635 32.508 C 120.643 33.500, 119.904 33.654, 119.474 32.958 C 118.740 31.771, 114.950 35.605, 115.079 37.403 C 115.125 38.040, 115.370 37.976, 115.662 37.250 C 116.365 35.509, 118 35.684, 118 37.500 C 118 39.106, 119.191 39.476, 120.417 38.250 C 120.829 37.837, 121.467 37.473, 121.833 37.440 C 126.948 36.977, 133.777 35.552, 134.785 34.737 C 135.491 34.165, 137.374 33.735, 138.969 33.780 C 142.390 33.877, 145.099 31.477, 142.271 30.854 C 141.297 30.640, 139.255 30.615, 137.733 30.800 M 145.135 32.338 C 144.274 33.375, 144.640 33.992, 146.762 35.086 C 148.268 35.862, 149.759 36.848, 150.077 37.277 C 150.394 37.706, 151.127 37.016, 151.707 35.743 C 152.712 33.539, 152.590 33.441, 149.131 33.668 C 147.134 33.799, 146.287 33.670, 147.250 33.380 C 148.213 33.090, 149 32.436, 149 31.927 C 149 30.536, 146.401 30.812, 145.135 32.338 M 123.459 33.067 C 123.096 33.653, 123.014 34.348, 123.276 34.610 C 123.538 34.872, 124.019 34.392, 124.345 33.543 C 125.021 31.781, 124.445 31.471, 123.459 33.067 M 112 35 C 112 35.550, 112.423 36, 112.941 36 C 113.459 36, 114.160 35.550, 114.500 35 C 114.840 34.450, 114.416 34, 113.559 34 C 112.702 34, 112 34.450, 112 35 M 108 36.282 C 108 36.987, 109.180 37.661, 110.621 37.781 C 112.847 37.965, 113.055 37.771, 111.999 36.499 C 110.477 34.665, 108 34.530, 108 36.282 M 104.705 39.750 C 104.414 41.263, 104.249 42.548, 104.338 42.608 C 104.427 42.667, 106.031 42.075, 107.902 41.293 L 111.304 39.870 108.538 38.435 C 105.044 36.623, 105.324 36.527, 104.705 39.750 M 119 45.500 C 118.007 46.697, 118.007 47.303, 119 48.500 C 121.620 51.657, 125.822 49.306, 124.362 45.500 C 124.045 44.675, 122.989 44, 122.015 44 C 121.042 44, 119.685 44.675, 119 45.500 M 110.175 52.042 C 106.796 54.299, 101.769 58.683, 99.004 61.784 C 93.042 68.474, 86.346 80.854, 87.319 83.390 C 88.298 85.939, 89.468 84.728, 92.766 77.749 C 96.300 70.270, 106.392 59.004, 113.802 54.264 C 118.717 51.120, 119.895 49.132, 117.347 48.282 C 116.781 48.094, 113.554 49.786, 110.175 52.042 M 124 61 C 124 61.550, 124.477 62, 125.059 62 C 125.641 62, 125.840 61.550, 125.500 61 C 125.160 60.450, 124.684 60, 124.441 60 C 124.198 60, 124 60.450, 124 61 M 165.500 65.991 C 149.891 66.693, 145.593 67.685, 137.533 72.447 C 129.036 77.467, 122.398 87.506, 121.525 96.658 C 121.270 99.321, 121.306 100.713, 121.605 99.750 C 121.903 98.787, 122.695 98, 123.366 98 C 124.037 98, 125.100 96.088, 125.730 93.750 C 128.492 83.493, 138.164 74.438, 149.460 71.533 C 156.556 69.708, 178.996 69.396, 180.699 71.099 C 181.304 71.704, 182.770 71.891, 183.957 71.513 C 185.581 70.998, 186.040 70.167, 185.808 68.164 C 185.442 64.997, 186.089 65.066, 165.500 65.991 M 159.527 73.616 C 157.700 75.443, 157.900 76.904, 160.174 78.338 C 163.670 80.543, 166.762 76.162, 163.800 73.200 C 162.211 71.611, 161.458 71.685, 159.527 73.616 M 149.200 75.200 C 146.580 77.820, 149.300 81.674, 152.952 80.515 C 156.193 79.486, 154.971 74, 151.500 74 C 150.895 74, 149.860 74.540, 149.200 75.200 M 181.073 76.635 C 179.933 78.084, 179 80.075, 179 81.058 C 179 83.811, 183.870 89, 186.454 89 C 190.243 89, 194 85.316, 194 81.602 C 194 74.666, 185.262 71.309, 181.073 76.635 M 94.362 76.500 C 93.554 78.606, 94.656 81, 96.433 81 C 98.183 81, 100.369 77.406, 99.487 75.979 C 98.550 74.463, 95.005 74.824, 94.362 76.500 M 169.516 76.365 C 168.330 77.232, 167.971 78.332, 168.416 79.734 C 169.240 82.332, 171.814 83.399, 173.627 81.895 C 177.107 79.007, 173.161 73.699, 169.516 76.365 M 185.152 78.885 C 183.127 80.168, 184.202 83.455, 186.765 83.820 C 189.452 84.203, 190.771 81.634, 188.989 79.487 C 187.575 77.783, 187.026 77.697, 185.152 78.885 M 202.309 81.636 C 201.641 83.377, 202.943 86.148, 204.705 86.735 C 205.290 86.930, 206.494 86.363, 207.382 85.475 C 208.606 84.251, 208.746 83.395, 207.963 81.931 C 206.702 79.575, 203.171 79.391, 202.309 81.636 M 137.750 83.080 C 134.331 85.072, 136.662 90.606, 140.595 89.833 C 143.663 89.229, 144.636 86.361, 142.553 84.059 C 140.442 81.725, 140.171 81.670, 137.750 83.080 M 146.104 84.914 C 145.337 85.400, 144.985 86.519, 145.323 87.399 C 145.844 88.756, 147.966 89, 159.246 89 C 168.922 89, 173.093 89.376, 174.527 90.376 C 175.612 91.133, 181.411 94.757, 187.412 98.428 C 196.752 104.142, 198.526 104.903, 199.721 103.708 C 201.226 102.203, 199.475 100.906, 180.042 89.127 L 171.584 84 159.542 84.015 C 152.919 84.024, 146.872 84.428, 146.104 84.914 M 84.200 87.200 C 81.667 89.733, 83.563 94, 87.221 94 C 89.780 94, 91.706 89.555, 90.025 87.530 C 88.504 85.697, 85.853 85.547, 84.200 87.200 M 196.040 89.452 C 195.377 90.251, 194.988 91.713, 195.176 92.702 C 195.620 95.042, 200.251 95.607, 201.974 93.532 C 203.060 92.223, 202.978 91.633, 201.483 89.981 C 199.355 87.630, 197.686 87.468, 196.040 89.452 M 210.174 90.314 C 205.557 95.229, 209.168 104, 215.809 104 C 219.845 104, 224 99.943, 224 96.002 C 224 89.062, 214.877 85.308, 210.174 90.314 M 154.832 91.529 C 149.580 94.381, 150.718 103.138, 156.530 104.597 C 163.989 106.469, 167.825 95.029, 160.932 91.465 C 157.587 89.735, 158.146 89.729, 154.832 91.529 M 213.482 93.660 C 211.719 95.424, 211.703 95.577, 213.035 98.066 C 214.247 100.331, 215.909 100.518, 218.431 98.674 C 219.658 97.777, 220.033 96.679, 219.589 95.282 C 218.749 92.635, 215.397 91.745, 213.482 93.660 M 141.250 93.662 C 139.209 94.486, 139.755 98.787, 141.991 99.497 C 144.666 100.346, 146 99.365, 146 96.548 C 146 94.751, 143.858 92.521, 142.668 93.079 C 142.576 93.122, 141.938 93.385, 141.250 93.662 M 128.200 95.200 C 125.397 98.003, 128.124 102.730, 131.860 101.545 C 134.556 100.689, 135.128 98.628, 133.368 96.115 C 131.700 93.734, 129.972 93.428, 128.200 95.200 M 168.367 95.485 C 167.518 97.698, 168.121 98.178, 185.146 108.834 L 199.791 118 225.302 118 C 250.320 118, 250.803 117.961, 250.290 116 C 249.785 114.069, 248.926 114, 225.425 114 L 201.084 114 189.792 106.679 C 171.131 94.580, 169.118 93.528, 168.367 95.485 M 156.362 96.500 C 155.705 98.211, 156.551 101.008, 157.719 100.985 C 159.824 100.943, 161.168 99.105, 160.540 97.125 C 159.762 94.675, 157.208 94.293, 156.362 96.500 M 92.509 104.252 C 92.725 109.066, 93.381 113.791, 93.965 114.752 C 94.818 116.155, 94.901 115.944, 94.388 113.681 C 94.036 112.131, 93.381 107.406, 92.931 103.181 L 92.114 95.500 92.509 104.252 M 227.447 102.059 C 225.364 104.361, 226.337 107.229, 229.405 107.833 C 233.456 108.629, 235.673 102.966, 232.066 101.035 C 229.540 99.684, 229.610 99.668, 227.447 102.059 M 135 103.330 C 135 104.062, 136.986 106.087, 139.413 107.830 C 143.724 110.926, 144.081 111, 154.733 111 L 165.639 111 171.041 115.030 C 181.160 122.581, 195.437 136.644, 198.980 142.554 C 202.761 148.859, 206.199 161.851, 206.426 170.696 C 206.559 175.869, 207.959 179.520, 208.045 174.917 C 208.070 173.588, 208.331 169.504, 208.627 165.843 C 209.254 158.066, 207.301 149.161, 203.395 141.984 C 199.993 135.734, 183.223 118.921, 172.457 110.968 L 167.085 107 156.182 107 C 146.201 107, 144.968 106.789, 141.595 104.500 C 137.527 101.739, 135 101.291, 135 103.330 M 201.485 105.048 C 200.651 107.675, 202.724 110.182, 205.412 109.798 C 207.864 109.448, 208.891 105.180, 206.837 103.878 C 204.519 102.409, 202.159 102.924, 201.485 105.048 M 85.529 105.614 C 83.615 107.528, 83.607 108.429, 85.487 109.989 C 87.600 111.743, 90 110.492, 90 107.638 C 90 104.650, 87.586 103.557, 85.529 105.614 M 126.571 107.571 C 124.685 109.457, 124.619 110.219, 126.200 111.800 C 128.612 114.212, 133 112.721, 133 109.490 C 133 108.772, 129.822 106, 129 106 C 128.529 106, 127.436 106.707, 126.571 107.571 M 134.653 110.680 C 133.219 112.115, 134.164 113.938, 137.368 115.918 C 140.269 117.711, 142.331 118, 152.244 118 L 163.751 118 175.796 130 C 182.420 136.600, 188.273 142, 188.803 142 C 189.333 142, 190.001 142.898, 190.288 143.995 C 190.959 146.560, 193.607 147.571, 195.513 145.989 C 198.943 143.142, 195.650 137.488, 191.919 139.819 C 190.379 140.780, 190 140.747, 190 139.653 C 190 138.903, 184.241 132.674, 177.203 125.811 L 164.405 113.334 153.274 113.792 C 143.226 114.206, 141.810 114.045, 138.725 112.139 C 136.845 110.977, 135.013 110.321, 134.653 110.680 M 180.618 111.525 C 178.579 113.564, 180.116 117, 183.067 117 C 185.454 117, 186.705 114.342, 185.338 112.174 C 183.904 109.901, 182.443 109.700, 180.618 111.525 M 81.582 111.752 C 80.990 112.343, 82.787 117.713, 85.335 122.965 C 88.251 128.980, 98.702 139.698, 100.194 138.206 C 100.996 137.404, 99.853 135.527, 95.990 131.302 C 91.280 126.153, 85.003 115.364, 85.001 112.417 C 85 111.378, 82.451 110.883, 81.582 111.752 M 88 114.941 C 88 116.903, 89.691 118.643, 90.658 117.675 C 91.443 116.890, 90.008 113, 88.933 113 C 88.420 113, 88 113.873, 88 114.941 M 92.667 119.667 C 91.337 120.997, 92.043 124.952, 93.776 125.880 C 96.247 127.203, 99 125.452, 99 122.557 C 99 119.677, 94.645 117.689, 92.667 119.667 M 155.667 119.667 C 154.180 121.153, 155.062 124.885, 157.048 125.515 C 159.470 126.284, 162 124.480, 162 121.985 C 162 119.589, 157.420 117.913, 155.667 119.667 M 192.500 122 C 192.122 122.612, 192.095 124.241, 192.441 125.620 C 192.948 127.640, 193.596 128.065, 195.785 127.813 C 198.065 127.550, 198.500 127.020, 198.500 124.500 C 198.500 121.997, 198.060 121.449, 195.844 121.193 C 194.384 121.024, 192.879 121.387, 192.500 122 M 164.414 123.363 C 164.037 124.347, 166.431 127.463, 171.326 132.358 C 176.726 137.759, 179.856 141.953, 182.546 147.395 C 186.226 154.842, 186.269 155.068, 185.783 164.363 C 185.370 172.245, 184.767 174.900, 182.088 180.626 C 180.327 184.390, 178.192 188.235, 177.345 189.171 C 175.828 190.848, 176.225 193, 178.053 193 C 180.060 193, 185.135 184.297, 187.507 176.789 C 192.930 159.621, 189.391 145.650, 176.070 131.643 C 168.565 123.752, 165.186 121.352, 164.414 123.363 M 207.557 124.223 C 204.158 129.075, 206.885 135, 212.518 135 C 216.398 135, 220 131.871, 220 128.500 C 220 122.734, 210.811 119.576, 207.557 124.223 M 231.684 122.746 C 223.054 123.034, 221.907 123.281, 222.196 124.787 C 222.485 126.293, 224.247 126.534, 236.762 126.777 L 251 127.055 251 124.527 C 251 122.150, 250.719 122.012, 246.250 122.209 C 243.637 122.324, 237.083 122.566, 231.684 122.746 M 210.380 127.452 C 209.611 129.455, 210.752 131, 213 131 C 215.500 131, 216.463 129.263, 214.964 127.456 C 213.414 125.589, 211.096 125.586, 210.380 127.452 M 159.516 127.974 C 158.989 128.827, 161.533 132.205, 172.647 145.406 C 173.993 147.005, 174.873 148.888, 174.603 149.592 C 174.333 150.295, 174.542 151.014, 175.066 151.189 C 175.591 151.364, 176.416 153.530, 176.900 156.003 C 177.479 158.960, 177.818 159.597, 177.890 157.865 C 177.994 155.386, 176.158 148.258, 173.676 141.500 C 172.520 138.353, 164.820 129.509, 161.853 127.921 C 160.766 127.340, 159.896 127.360, 159.516 127.974 M 98 128.839 C 98 130.227, 104.831 136, 106.473 136 C 108.800 136, 108.323 134.706, 104.702 131.196 C 101.621 128.209, 98 126.936, 98 128.839 M 197.573 129.882 C 197.273 130.368, 197.860 131.830, 198.878 133.132 C 206.162 142.447, 210.012 152.934, 210.329 164.319 C 210.467 169.304, 210.833 170.539, 212.250 170.811 C 213.805 171.109, 213.998 170.218, 213.979 162.823 C 213.948 150.660, 210.004 140.298, 202.152 131.750 C 199.489 128.851, 198.467 128.435, 197.573 129.882 M 226.745 131.527 C 224.824 132.833, 222.984 134.598, 222.657 135.450 C 222.330 136.303, 221.149 137, 220.031 137 C 218.531 137, 218 137.654, 218 139.500 C 218 141.121, 218.560 142, 219.595 142 C 221.808 142, 230 133.995, 230 131.833 C 230 130.670, 230.515 130.260, 231.500 130.638 C 232.325 130.955, 233 130.989, 233 130.714 C 233 129.067, 229.741 129.491, 226.745 131.527 M 233.250 135.651 C 232.563 135.935, 232 136.774, 232 137.517 C 232 138.260, 230.808 139.010, 229.351 139.184 C 226.795 139.489, 223.990 142.324, 225.123 143.456 C 225.427 143.760, 227.211 143.239, 229.088 142.298 C 230.964 141.357, 233.771 140.718, 235.324 140.877 C 237.888 141.140, 238.119 140.905, 237.824 138.342 C 237.508 135.588, 235.816 134.592, 233.250 135.651 M 105.655 138.829 C 103.589 141.112, 103.569 142.426, 105.571 144.429 C 107.798 146.655, 109.705 146.380, 111.548 143.567 C 114.663 138.812, 109.458 134.627, 105.655 138.829 M 233.442 144.094 C 233.134 144.592, 231.537 145, 229.893 145 C 226.618 145, 222.087 149.179, 222.032 152.250 C 221.986 154.753, 223.532 154.411, 225.907 151.392 C 227.565 149.284, 228.873 148.756, 232.729 148.642 C 236.774 148.522, 237.546 148.177, 237.802 146.380 C 238.009 144.934, 237.453 144.090, 236.053 143.724 C 234.925 143.429, 233.750 143.596, 233.442 144.094 M 214.332 145.578 C 213.999 146.445, 214.463 147.892, 215.363 148.792 C 216.879 150.307, 217.121 150.307, 218.637 148.792 C 220.681 146.747, 219.743 144, 217 144 C 215.865 144, 214.665 144.710, 214.332 145.578 M 122.750 145.662 C 123.438 145.940, 124.563 145.940, 125.250 145.662 C 125.938 145.385, 125.375 145.158, 124 145.158 C 122.625 145.158, 122.063 145.385, 122.750 145.662 M 112.015 146.838 C 112.042 147.973, 113.968 150.556, 114 149.500 C 114.017 148.950, 114.371 149.035, 114.787 149.689 C 115.713 151.146, 119.541 152.039, 127.764 152.718 C 132.972 153.148, 133.933 152.990, 133.469 151.780 C 133.128 150.891, 131.387 150.265, 128.995 150.171 C 126.841 150.087, 123.149 149.306, 120.790 148.437 C 115.775 146.589, 111.994 145.900, 112.015 146.838 M 192.418 151.651 C 194.140 158.776, 194.187 170.568, 192.520 177 C 190.925 183.155, 186.131 192.939, 183.299 195.821 C 181.582 197.569, 181.651 199, 183.452 199 C 186.004 199, 195.178 183.802, 196.514 177.362 C 199.067 165.051, 197.488 149.910, 193.572 149.156 C 192.010 148.855, 191.834 149.236, 192.418 151.651 M 113 153 C 116.025 154.598, 118.950 155.906, 119.500 155.906 C 120.050 155.906, 118.025 154.598, 115 153 C 111.975 151.402, 109.050 150.094, 108.500 150.094 C 107.950 150.094, 109.975 151.402, 113 153 M 216.105 152.373 C 214.456 154.361, 215.835 157, 218.524 157 C 221.187 157, 222.126 155.270, 220.830 152.750 C 219.751 150.652, 217.671 150.486, 216.105 152.373 M 228.602 155.415 C 225.334 160.992, 223.862 164.693, 223.399 168.500 L 223.033 171.500 224.961 169 C 226.022 167.625, 227.891 164.363, 229.116 161.750 C 230.494 158.808, 231.992 157, 233.048 157 C 235.352 157, 237.177 154.626, 236.410 152.627 C 235.164 149.379, 231.339 150.745, 228.602 155.415 M 78.200 153.200 C 75.214 156.186, 78.526 160.859, 82.224 158.880 C 85.172 157.302, 83.843 152, 80.500 152 C 79.895 152, 78.860 152.540, 78.200 153.200 M 181.921 157.249 C 181.623 159.399, 181.776 160.624, 182.279 160.121 C 182.762 159.638, 182.995 157.951, 182.798 156.372 C 182.468 153.728, 182.399 153.798, 181.921 157.249 M 217.037 161.931 C 216.254 163.395, 216.394 164.251, 217.618 165.475 C 219.455 167.312, 220.905 167.098, 222.371 164.774 C 223.087 163.638, 222.999 162.704, 222.070 161.584 C 220.298 159.450, 218.291 159.588, 217.037 161.931 M 231 161.393 C 231 163.089, 233.704 164.287, 234.527 162.956 C 234.852 162.430, 234.840 161.550, 234.500 161 C 233.576 159.505, 231 159.794, 231 161.393 M 181.497 167.800 C 181.495 169.835, 181.144 172.850, 180.717 174.500 C 180.166 176.624, 180.232 177.062, 180.940 176 C 182.386 173.835, 183.404 166.004, 182.375 164.975 C 181.875 164.475, 181.499 165.686, 181.497 167.800 M 177.158 168 C 177.158 169.375, 177.385 169.938, 177.662 169.250 C 177.940 168.563, 177.940 167.438, 177.662 166.750 C 177.385 166.063, 177.158 166.625, 177.158 168 M 173.624 168.539 C 172.659 171.053, 172.943 171.702, 174.122 169.675 C 174.706 168.671, 174.973 167.639, 174.715 167.382 C 174.458 167.124, 173.966 167.645, 173.624 168.539 M 47.028 170.467 C 46.011 171.691, 46.006 172.302, 47 173.500 C 49.068 175.991, 51.174 175.344, 50.816 172.327 C 50.440 169.149, 48.793 168.340, 47.028 170.467 M 96.571 170.571 C 94.662 172.481, 94.627 173.108, 96.306 175.404 C 98.170 177.954, 102.405 177.168, 102.827 174.195 C 103.454 169.772, 99.602 167.541, 96.571 170.571 M 171.215 171.471 C 171.608 171.907, 171.480 173.104, 170.930 174.131 C 170.380 175.159, 170.155 176, 170.430 176 C 170.705 176, 171.397 175.127, 171.968 174.061 C 172.725 172.645, 172.667 171.927, 171.753 171.400 C 171.064 171.004, 170.822 171.036, 171.215 171.471 M 174.391 176.568 C 173.230 179.525, 172.632 181.727, 173.062 181.462 C 174.035 180.860, 177.433 172.095, 176.894 171.574 C 176.677 171.364, 175.551 173.611, 174.391 176.568 M 97.625 172.708 C 97.311 173.022, 97.294 173.666, 97.586 174.139 C 98.288 175.275, 101 175.250, 101 174.107 C 101 173.003, 98.405 171.928, 97.625 172.708 M 210.429 174.428 C 210.094 175.763, 210.208 177.549, 210.682 178.397 C 211.280 179.466, 211.545 178.720, 211.545 175.970 C 211.545 171.388, 211.283 171.025, 210.429 174.428 M 215.932 176.127 C 215.044 177.786, 215.091 178.443, 216.147 179.112 C 219.883 181.479, 223.877 177.846, 220.363 175.276 C 217.967 173.524, 217.252 173.661, 215.932 176.127 M 102.553 178.915 C 101.760 180.197, 107.902 183.795, 113.664 185.424 C 123.468 188.196, 124 188.227, 124 186.019 C 124 184.600, 123.331 183.992, 121.750 183.973 C 120.513 183.958, 116.363 182.608, 112.529 180.973 C 105.097 177.803, 103.450 177.464, 102.553 178.915 M 61.750 181.728 C 59.688 181.944, 58 182.336, 58 182.600 C 58 183.768, 62.188 191.146, 62.610 190.723 C 62.869 190.464, 62.119 188.620, 60.942 186.626 L 58.802 183 61.696 183 C 63.988 183, 65.514 184.132, 69.044 188.451 C 71.495 191.450, 73.950 193.925, 74.500 193.951 C 75.050 193.978, 76.781 195.606, 78.348 197.569 C 79.914 199.532, 81.431 200.902, 81.720 200.613 C 82.009 200.325, 79.911 197.643, 77.059 194.655 C 74.206 191.666, 70.512 187.371, 68.850 185.110 C 67.187 182.850, 65.753 181.076, 65.663 181.168 C 65.574 181.261, 63.813 181.513, 61.750 181.728 M 209.649 183.233 C 209.328 184.461, 209.388 185.787, 209.783 186.179 C 210.177 186.572, 210.594 185.567, 210.710 183.947 C 210.959 180.449, 210.464 180.117, 209.649 183.233 M 220.011 182.487 C 218.208 184.660, 219.567 189, 222.051 189 C 224.478 189, 226.156 185.249, 224.847 182.750 C 223.724 180.608, 221.663 180.496, 220.011 182.487 M 127.039 183.928 C 124.997 187.743, 128.397 191.018, 132.040 188.743 C 134.256 187.359, 134.582 184.982, 132.800 183.200 C 131 181.400, 128.202 181.753, 127.039 183.928 M 170 184.022 C 170 184.585, 167.637 187.360, 164.750 190.189 C 159.894 194.946, 159.818 195.089, 163.731 192.097 C 168.285 188.615, 172.814 183, 171.068 183 C 170.481 183, 170 183.460, 170 184.022 M 201.250 184.360 C 200.012 184.973, 199 185.833, 199 186.272 C 199 187.236, 202.637 185.396, 203.503 183.995 C 203.841 183.448, 203.979 183.055, 203.809 183.123 C 203.639 183.190, 202.488 183.747, 201.250 184.360 M 154.441 189.555 C 152.577 191.049, 152.589 191.067, 154.750 190.020 C 155.988 189.420, 157 188.720, 157 188.465 C 157 187.700, 156.481 187.921, 154.441 189.555 M 213.200 191.200 C 210.035 194.365, 213.208 199.618, 216.886 197.302 C 219.144 195.880, 219.389 193.532, 217.479 191.621 C 215.542 189.685, 214.789 189.611, 213.200 191.200 M 63.877 193.500 C 65.262 196.465, 70.922 203.364, 72.834 204.418 C 73.750 204.923, 72.700 203.348, 70.500 200.918 C 68.300 198.488, 65.700 195.375, 64.721 194 C 63.654 192.501, 63.316 192.300, 63.877 193.500 M 214.639 192.694 C 213.444 193.889, 213.994 196, 215.500 196 C 216.325 196, 217 195.352, 217 194.559 C 217 192.888, 215.573 191.761, 214.639 192.694 M 171.200 194.200 C 167.967 197.433, 172.953 202.944, 176.470 200.025 C 179.311 197.667, 177.670 193, 174 193 C 173.120 193, 171.860 193.540, 171.200 194.200 M 153.777 197.401 C 148.541 200.512, 147.711 201.657, 152.500 199.162 C 157.513 196.550, 159.797 195.007, 158.500 195.110 C 157.950 195.153, 155.824 196.184, 153.777 197.401 M 85.382 197.446 C 84.545 199.628, 86.889 202.159, 89.412 201.798 C 90.893 201.587, 91.500 200.773, 91.500 199 C 91.500 197.015, 90.933 196.435, 88.744 196.183 C 86.939 195.975, 85.780 196.411, 85.382 197.446 M 188.500 200.738 C 183.708 206.188, 176.339 211.781, 169.153 215.423 C 163.511 218.281, 152.621 221.966, 149.750 221.987 C 148.787 221.994, 148 222.420, 148 222.934 C 148 224.805, 156.965 222.362, 167 217.756 C 176.843 213.238, 186.457 206.023, 191.574 199.314 C 195.273 194.464, 193.153 195.446, 188.500 200.738 M 203.079 198.583 C 203.127 199.748, 203.364 199.985, 203.683 199.188 C 203.972 198.466, 203.936 197.603, 203.604 197.271 C 203.272 196.939, 203.036 197.529, 203.079 198.583 M 208.011 199.487 C 206.654 201.122, 207.303 204, 209.028 204 C 209.627 204, 209.872 203.601, 209.570 203.114 C 209.269 202.626, 209.991 201.974, 211.176 201.664 C 212.994 201.189, 213.129 200.860, 212.042 199.551 C 210.435 197.614, 209.577 197.600, 208.011 199.487 M 141.813 201.683 C 142.534 201.972, 143.397 201.936, 143.729 201.604 C 144.061 201.272, 143.471 201.036, 142.417 201.079 C 141.252 201.127, 141.015 201.364, 141.813 201.683 M 166.009 202.489 C 165.329 203.308, 164.374 203.731, 163.887 203.430 C 163.399 203.129, 163 203.557, 163 204.382 C 163 205.207, 163.450 206.160, 164 206.500 C 164.550 206.840, 165 206.442, 165 205.616 C 165 204.789, 166 203.413, 167.223 202.557 C 168.445 201.701, 168.950 201, 168.345 201 C 167.740 201, 166.689 201.670, 166.009 202.489 M 86.946 205.271 C 88.842 207.322, 90.839 209, 91.385 209 C 92.363 209, 90.775 207.396, 85.959 203.521 C 84.589 202.419, 85.026 203.194, 86.946 205.271 M 100.029 202.961 C 98.254 204.084, 98.650 204.515, 102.250 205.378 C 105.160 206.077, 105.791 205.191, 103.800 203.200 C 102.370 201.770, 101.954 201.743, 100.029 202.961 M 117.507 202.989 C 117.157 203.555, 117.558 203.723, 118.448 203.382 C 120.180 202.717, 120.497 202, 119.059 202 C 118.541 202, 117.843 202.445, 117.507 202.989 M 136.269 202.693 C 137.242 202.947, 138.592 202.930, 139.269 202.656 C 139.946 202.382, 139.150 202.175, 137.500 202.195 C 135.850 202.215, 135.296 202.439, 136.269 202.693 M 124.264 204.718 C 125.784 204.947, 128.034 204.941, 129.264 204.704 C 130.494 204.467, 129.250 204.279, 126.500 204.286 C 123.750 204.294, 122.744 204.488, 124.264 204.718 M 157.200 206.200 C 155.618 207.782, 155.681 209.491, 157.373 210.895 C 159.020 212.261, 161.616 211.442, 162.440 209.296 C 163.103 207.568, 161.392 205, 159.578 205 C 158.930 205, 157.860 205.540, 157.200 206.200 M 205.250 205.667 C 203.805 206.245, 203.565 209.613, 204.910 210.444 C 206.637 211.512, 209.109 209.770, 208.803 207.701 C 208.481 205.529, 207.294 204.849, 205.250 205.667 M 100 207.094 C 100 207.592, 100.900 208, 102 208 C 103.100 208, 104 207.827, 104 207.617 C 104 207.406, 103.100 206.998, 102 206.710 C 100.900 206.423, 100 206.595, 100 207.094 M 134.046 207.444 C 132.231 209.632, 133.525 212.206, 136.246 211.820 C 137.894 211.586, 138.500 210.832, 138.500 209.014 C 138.500 206.096, 135.920 205.187, 134.046 207.444 M 93.825 210.279 C 95.312 212.057, 101.001 215.254, 100.992 214.307 C 100.987 213.863, 99.143 212.501, 96.894 211.279 C 94.644 210.058, 93.263 209.608, 93.825 210.279 M 105 210.864 C 105 212.704, 106.816 213.617, 117.500 217.146 C 123.729 219.204, 143.305 218.917, 149.738 216.674 C 155.391 214.702, 156.245 214.014, 155.177 212.286 C 154.675 211.474, 152.980 211.561, 148.993 212.604 C 139.388 215.118, 130.876 215.391, 120.295 213.526 C 114.908 212.576, 109.503 211.170, 108.285 210.400 C 105.397 208.574, 105 208.631, 105 210.864 M 193.179 212.084 C 192.495 213.181, 191.471 213.791, 190.904 213.441 C 189.796 212.756, 186 215.701, 186 217.245 C 186 217.759, 184.988 219.075, 183.750 220.170 L 181.500 222.160 183.873 220.650 C 185.178 219.819, 186.768 218.095, 187.406 216.820 C 188.044 215.544, 189.327 214.495, 190.258 214.489 C 192.048 214.477, 195.716 211.382, 194.903 210.569 C 194.640 210.306, 193.864 210.988, 193.179 212.084 M 79.026 211.316 C 80.521 212.935, 87.239 216.992, 86.046 215.555 C 85.276 214.627, 83.263 213.166, 81.573 212.307 C 79.883 211.448, 78.737 211.002, 79.026 211.316 M 193.954 218.495 C 190.404 221.517, 183.978 225.832, 179.674 228.085 C 170.338 232.970, 170.080 234.496, 179.336 230.078 C 186.095 226.852, 195.749 220.061, 199.924 215.594 C 204.128 211.096, 200.669 212.777, 193.954 218.495 M 102.564 215.293 C 102.940 216.279, 103.499 216.834, 103.807 216.526 C 104.115 216.219, 103.808 215.412, 103.124 214.733 C 102.136 213.753, 102.022 213.868, 102.564 215.293 M 110 219 C 111.958 220.266, 113.282 220.266, 112.500 219 C 112.160 218.450, 111.121 218.007, 110.191 218.015 C 108.734 218.029, 108.707 218.165, 110 219 M 91 221 C 91 221.550, 91.423 222, 91.941 222 C 92.459 222, 93.160 221.550, 93.500 221 C 93.840 220.450, 93.416 220, 92.559 220 C 91.702 220, 91 220.450, 91 221 M 120.500 222 C 120.840 222.550, 121.316 223, 121.559 223 C 121.802 223, 122 222.550, 122 222 C 122 221.450, 121.523 221, 120.941 221 C 120.359 221, 120.160 221.450, 120.500 222 M 175.872 223.750 C 174.629 225.336, 174.664 225.371, 176.250 224.128 C 177.916 222.821, 178.445 222, 177.622 222 C 177.415 222, 176.627 222.787, 175.872 223.750 M 136.728 223.722 C 138.503 223.943, 141.653 223.946, 143.728 223.730 C 145.802 223.513, 144.350 223.333, 140.500 223.328 C 136.650 223.324, 134.952 223.501, 136.728 223.722 M 101.733 225.124 C 102.412 225.808, 103.219 226.115, 103.526 225.807 C 103.834 225.499, 103.279 224.940, 102.293 224.564 C 100.868 224.022, 100.753 224.136, 101.733 225.124 M 105 226.577 C 105 227.252, 110.195 229.139, 110.690 228.644 C 110.917 228.417, 109.729 227.753, 108.051 227.168 C 106.373 226.583, 105 226.317, 105 226.577 M 166 228 C 165.099 228.582, 164.975 228.975, 165.691 228.985 C 166.346 228.993, 167.160 228.550, 167.500 228 C 168.267 226.758, 167.921 226.758, 166 228 M 169.507 227.989 C 169.157 228.555, 169.558 228.723, 170.448 228.382 C 172.180 227.717, 172.497 227, 171.059 227 C 170.541 227, 169.843 227.445, 169.507 227.989 M 114.813 229.683 C 115.534 229.972, 116.397 229.936, 116.729 229.604 C 117.061 229.272, 116.471 229.036, 115.417 229.079 C 114.252 229.127, 114.015 229.364, 114.813 229.683 M 118.813 230.683 C 119.534 230.972, 120.397 230.936, 120.729 230.604 C 121.061 230.272, 120.471 230.036, 119.417 230.079 C 118.252 230.127, 118.015 230.364, 118.813 230.683 M 122.813 231.683 C 123.534 231.972, 124.397 231.936, 124.729 231.604 C 125.061 231.272, 124.471 231.036, 123.417 231.079 C 122.252 231.127, 122.015 231.364, 122.813 231.683" stroke="none" fill="#48c9f6" fill-rule="evenodd"/></svg>