<svg xmlns="http://www.w3.org/2000/svg" width="933" height="307" viewBox="0 0 933 307" version="1.1"><path d="M 597 107.346 L 591.500 108.500 591.182 128 C 591.007 138.725, 591.169 156.613, 591.542 167.750 L 592.220 188 598.516 188 L 604.813 188 605.156 169.250 C 605.479 151.631, 605.642 150.272, 607.847 146.726 C 613.649 137.393, 625.549 137.891, 629.621 147.636 C 630.625 150.037, 631 155.981, 631 169.468 L 631 188 640.878 188 C 647.610 188, 651.055 187.602, 651.697 186.750 C 652.216 186.063, 655.033 179.200, 657.957 171.500 C 660.882 163.800, 663.776 156.510, 664.389 155.301 C 665.373 153.358, 666.270 155.104, 672.097 170.301 L 678.691 187.500 684.461 187.500 L 690.232 187.500 697.953 167 C 702.200 155.725, 707.518 142.113, 709.771 136.750 L 713.868 127 705.960 127 C 698.184 127, 698.025 127.050, 696.500 130.001 C 695.036 132.831, 687.322 153.121, 685.329 159.383 C 684.482 162.043, 683.843 160.899, 677.084 144.633 L 669.756 127 665.323 127 C 660.936 127, 660.866 127.054, 658.575 132.250 C 657.302 135.137, 654.079 143.281, 651.413 150.348 C 646.043 164.583, 646.214 164.579, 643.564 150.500 C 641.840 141.344, 639.072 135.257, 634.832 131.298 C 627.528 124.479, 614.214 124.231, 606.750 130.776 C 605.094 132.227, 605 131.601, 605 119.155 C 605 109.246, 604.692 106.024, 603.750 106.096 C 603.063 106.149, 600.025 106.712, 597 107.346 M 559 113.883 L 554.500 114.500 554.200 120.250 L 553.900 126 549.200 126.014 C 540.322 126.039, 539.870 126.409, 540.206 133.378 L 540.500 139.500 547.250 139.796 L 554 140.091 554 155.078 C 554 171.771, 554.819 175.119, 560.301 180.838 C 564.664 185.390, 570.009 187.961, 575.719 188.254 L 580.500 188.500 580.500 181.517 L 580.500 174.534 576.673 173.912 C 569.333 172.719, 568.544 170.913, 568.176 154.475 L 567.852 140 574.972 140 L 582.091 140 581.796 133.250 L 581.500 126.500 574.797 126.205 L 568.093 125.911 567.797 119.705 C 567.465 112.759, 567.420 112.729, 559 113.883 M 377 126.579 C 368.360 129.343, 363 136.277, 363 144.689 C 363 156.760, 370.197 162.001, 390.238 164.523 C 398.473 165.559, 400.379 170.011, 393.997 173.305 C 389.448 175.654, 381.995 175.144, 375.596 172.047 L 370.801 169.725 366.151 174.417 L 361.500 179.109 364 181.200 C 365.375 182.350, 368.975 184.463, 372 185.896 C 376.724 188.133, 378.840 188.500, 387 188.500 C 395 188.500, 397.268 188.122, 401.363 186.106 C 413.772 179.998, 415.895 163.033, 405.176 155.631 C 401.366 153, 391.606 150, 386.855 150 C 382.912 150, 379.281 148.393, 378.058 146.107 C 377.199 144.504, 377.456 143.581, 379.384 141.340 C 381.485 138.897, 382.445 138.571, 387.321 138.641 C 391.284 138.699, 394.335 139.489, 398.006 141.408 L 403.144 144.095 407.031 139.797 C 409.169 137.434, 410.936 135.050, 410.957 134.500 C 411.014 133.063, 403.318 128.471, 397.715 126.599 C 391.884 124.651, 383.054 124.642, 377 126.579 M 733 125.930 C 724.203 127.927, 716.561 134.014, 712.247 142.460 C 708.813 149.184, 708.018 160.528, 710.466 167.897 C 716.673 186.585, 737.934 194.598, 754.186 184.374 L 757.873 182.055 758.186 184.778 C 758.489 187.407, 758.731 187.510, 765.250 187.796 L 772 188.091 772 157.546 L 772 127 765 127 C 758.256 127, 758 127.089, 758 129.428 L 758 131.855 752.250 128.948 C 746.066 125.822, 738.621 124.655, 733 125.930 M 866.146 126.513 C 857.566 128.916, 850.743 134.912, 846.816 143.500 C 843.517 150.714, 843.515 164.500, 846.812 171.193 C 849.878 177.418, 856.106 183.696, 861.844 186.345 C 869.057 189.675, 881.475 189.347, 889.670 185.611 C 893.064 184.064, 896.771 181.808, 897.907 180.599 L 899.974 178.399 895.022 173.522 L 890.070 168.644 885.150 171.322 C 876.950 175.785, 866.852 174.441, 861.973 168.238 C 857.954 163.129, 858.211 163.060, 882.250 162.769 L 904.500 162.500 904.500 155 C 904.500 146.140, 902.171 140.478, 895.845 133.960 C 888.491 126.382, 876.947 123.487, 866.146 126.513 M 505.373 127.918 C 503.104 128.948, 500.940 130.289, 500.564 130.896 C 499.376 132.819, 497.862 132.089, 498.187 129.750 C 498.482 127.632, 498.105 127.483, 491.750 127.204 L 485 126.909 485 157.454 L 485 188 492 188 L 499 188 499 169.950 C 499 149.914, 499.330 148.552, 505.484 143.148 C 509.916 139.257, 515.306 138.880, 519.486 142.168 C 524.350 145.994, 525 149.212, 525 169.468 L 525 188 532.098 188 L 539.196 188 538.804 166.250 C 538.372 142.310, 537.982 140.466, 531.884 133.520 C 530.032 131.411, 526.713 128.867, 524.509 127.865 C 519.255 125.478, 510.693 125.502, 505.373 127.918 M 414 127.454 C 414 127.703, 419.064 136.372, 425.254 146.718 C 431.443 157.063, 437.853 168.098, 439.498 171.240 L 442.489 176.953 435.512 190.726 C 431.674 198.302, 428.377 204.838, 428.184 205.250 C 427.991 205.662, 431.593 206, 436.189 206 L 444.545 206 453.464 186.750 C 458.369 176.162, 466.323 159.267, 471.139 149.204 C 475.954 139.141, 480.174 130.028, 480.515 128.954 C 481.093 127.133, 480.620 127, 473.555 127 L 465.975 127 463.595 132.250 C 462.286 135.137, 458.657 142.867, 455.531 149.427 L 449.846 161.354 445.580 153.371 C 439.427 141.854, 432.957 130.773, 431.205 128.750 C 430.002 127.361, 428.073 127, 421.845 127 C 417.530 127, 414 127.204, 414 127.454 M 778.035 128.250 C 778.054 128.938, 783.852 142.550, 790.921 158.500 L 803.773 187.500 811.262 187.790 L 818.751 188.080 820.272 184.290 C 821.108 182.205, 827.239 168.727, 833.896 154.338 C 840.553 139.949, 846 127.893, 846 127.546 C 846 127.200, 842.522 127.047, 838.270 127.208 L 830.541 127.500 822.412 145.234 C 817.941 154.988, 813.657 164.590, 812.892 166.573 L 811.500 170.177 802.067 148.589 L 792.634 127 785.317 127 C 780.112 127, 778.010 127.361, 778.035 128.250 M 869.317 140.228 C 865.803 141.357, 861.556 145.398, 860.623 148.500 C 860.037 150.446, 860.419 150.492, 874.904 150.201 C 889.129 149.915, 889.764 149.815, 889.274 147.939 C 888.545 145.152, 883.584 141.256, 879.219 140.044 C 874.855 138.832, 873.584 138.856, 869.317 140.228 M 733.500 140.943 C 730.148 142.310, 726.189 146.937, 724.430 151.545 C 720.223 162.559, 727.638 174, 738.982 174 C 749.969 174, 758.718 164.097, 756.530 154.136 C 755.555 149.696, 750.739 143.578, 746.715 141.669 C 743.008 139.910, 736.860 139.572, 733.500 140.943" stroke="none" fill="#fbfbfb" fill-rule="evenodd"/><path d="M 150.357 15.571 C 132.884 18.506, 112.973 26.610, 97.015 37.281 C 92.882 40.045, 84.488 47.300, 78.361 53.403 C 49.566 82.089, 37.658 113.989, 39.316 157.995 C 40.170 180.630, 43.888 195.637, 53.566 215.500 C 59.668 228.025, 71.940 244.996, 80.692 253.014 C 98.450 269.282, 121.076 281.927, 142.830 287.740 C 151.439 290.041, 154.420 290.329, 170 290.365 C 184.417 290.398, 189.295 290.016, 197.688 288.196 C 225.624 282.139, 247.675 270.398, 266.535 251.536 C 290.503 227.567, 303.503 198.931, 306.956 162.500 C 307.529 156.450, 307.999 149.813, 307.999 147.750 L 308 144 300.652 144 L 293.305 144 292.655 155.375 C 291.117 182.313, 283.158 206.343, 269.313 225.850 C 262.779 235.057, 248.963 248.643, 240 254.674 C 217.738 269.655, 192.932 276.701, 166 275.694 C 150.235 275.105, 140.205 272.583, 125.441 265.497 C 90.094 248.533, 66.519 219.761, 56.897 181.844 C 55.224 175.253, 54.673 169.324, 54.270 153.617 C 53.898 139.089, 54.063 133.921, 54.881 134.426 C 55.496 134.807, 56 136.797, 56 138.849 C 56 144.548, 58.638 153.693, 62.677 162 C 65.918 168.664, 68.674 171.878, 87.412 190.844 C 111.126 214.846, 117.468 220.283, 127.802 225.469 C 147.873 235.542, 175.602 235.725, 194.024 225.907 C 211.226 216.738, 220.941 201.263, 220.984 182.960 C 221.016 169.809, 216.479 158.848, 206.635 148.290 C 200.412 141.616, 200.283 141.535, 198.082 142.928 C 196.967 143.634, 197.986 145.270, 202.850 150.578 C 211.415 159.925, 215.276 168.027, 215.330 176.764 C 215.403 188.590, 209.155 201.918, 200.571 208.250 C 181.447 222.356, 154.223 223.759, 133.061 211.729 C 127.402 208.512, 101.890 185.031, 86.776 169.130 C 72.527 154.139, 67.244 140.177, 68.272 120.228 C 69.276 100.738, 77.104 80.651, 89.830 64.912 C 98.371 54.349, 105.291 48.745, 117.991 42.103 C 126.811 37.491, 128 37.101, 128 38.826 C 128 40.120, 128.918 41.014, 130.712 41.464 C 133.315 42.117, 133.185 42.272, 127.462 45.340 C 114.923 52.062, 103.413 62.389, 95.153 74.330 C 84.195 90.171, 79.616 112.086, 83.467 130.257 C 86.096 142.667, 90.701 149.588, 106.932 165.527 C 114.944 173.395, 123.750 181.691, 126.500 183.962 C 139.141 194.402, 158.402 199.252, 173.967 195.914 C 185.729 193.391, 194.022 183.536, 193.978 172.136 C 193.932 160.198, 188.494 154.203, 169.455 145.095 C 150.319 135.941, 144.345 130.030, 141.894 117.824 C 138.596 101.404, 151.743 80.427, 171.128 71.183 C 182.826 65.604, 190.311 64, 204.654 64 C 218.600 64, 228.356 66.069, 239.656 71.422 C 248.721 75.717, 259.749 83.187, 267.657 90.391 C 271.044 93.476, 274.276 96, 274.840 96 C 275.404 96, 276.153 95.092, 276.505 93.983 C 276.977 92.498, 275.799 90.274, 272.037 85.546 C 265.135 76.873, 255.883 69.826, 243.672 63.942 C 218.464 51.796, 190.078 51.830, 164.380 64.037 C 149.024 71.332, 135.482 87.250, 132.085 102 C 130.387 109.372, 130.793 120.118, 133.043 127.404 C 134.700 132.767, 136.253 135.266, 141.252 140.610 C 146.795 146.536, 148.985 147.974, 162.941 154.851 C 179.170 162.848, 183 166.065, 183 171.698 C 183 178.395, 175.919 183.933, 167.299 183.978 C 151.332 184.062, 137.429 176.125, 115.905 154.637 C 101.525 140.281, 96.692 129.636, 96.798 112.550 C 97.008 78.832, 128.496 44.830, 165.811 38.029 C 168.940 37.459, 172.512 36.795, 173.750 36.553 C 175.235 36.264, 176 36.599, 176 37.538 C 176 39.365, 180.628 40.554, 182.308 39.159 C 184.044 37.718, 194.377 37.631, 206.500 38.954 C 223.943 40.858, 223.647 41.499, 205.303 41.543 C 189.075 41.582, 186.631 41.827, 177.682 44.308 C 162.900 48.405, 153.377 53.918, 142.732 64.540 C 130.400 76.845, 124.284 90.537, 123.277 108.095 C 122.645 119.115, 123.804 125.451, 128.144 134.698 C 133.458 146.020, 144.562 155.731, 154.250 157.527 C 156.313 157.910, 158 157.999, 158 157.725 C 158 157.452, 154.946 155.414, 151.214 153.196 C 135.044 143.590, 127 129.396, 127 110.471 C 127 101.254, 128.738 94.456, 133.524 84.952 C 138.706 74.662, 148.661 64.025, 150.430 66.887 C 150.762 67.423, 150.575 68.144, 150.016 68.490 C 149.457 68.835, 149 69.545, 149 70.067 C 149 70.589, 151.588 69.267, 154.750 67.129 C 162.225 62.077, 165.863 60.269, 174.441 57.343 C 188.718 52.473, 204.513 50.913, 218 53.040 C 225.285 54.189, 241.406 59.233, 247.500 62.270 C 254.650 65.833, 266 74.206, 270.567 79.286 C 276.029 85.360, 285.027 103.043, 288.638 114.795 C 290.109 119.583, 291.354 123.565, 291.406 123.644 C 291.699 124.093, 304.398 120.996, 305.049 120.317 C 306.217 119.097, 299.743 100.336, 294.544 89.874 C 287.292 75.280, 279.451 64.369, 268.040 52.995 C 247.672 32.694, 223.862 20.375, 195.619 15.525 C 184.699 13.650, 161.656 13.673, 150.357 15.571 M 166.389 40.430 C 165.393 43.025, 166.788 45.169, 169.246 44.820 C 170.898 44.585, 171.500 43.833, 171.500 42 C 171.500 40.167, 170.898 39.415, 169.246 39.180 C 167.893 38.988, 166.750 39.488, 166.389 40.430 M 151.163 44.878 C 150.427 45.345, 149.977 46.800, 150.163 48.113 C 150.568 50.981, 154.676 51.461, 156.333 48.834 C 158.238 45.813, 154.364 42.849, 151.163 44.878 M 143.028 51.581 C 132.155 57.794, 121.576 69.582, 115.426 82.337 C 112.335 88.747, 111.881 92.540, 114.302 91.733 C 115.457 91.348, 115.645 91.027, 119.403 83 C 123.305 74.666, 132.917 63.804, 142.057 57.399 C 149.366 52.278, 151.041 50.158, 148.438 49.325 C 147.922 49.160, 145.488 50.175, 143.028 51.581 M 115.460 72.250 C 111.860 76.390, 105 89.160, 105 91.722 C 105 92.425, 105.640 93, 106.423 93 C 107.233 93, 110.015 88.587, 112.884 82.750 C 115.655 77.112, 118.670 71.487, 119.583 70.250 C 122.510 66.285, 119.289 67.847, 115.460 72.250 M 206.500 70.046 C 183.359 71.069, 174.258 74.029, 164.695 83.647 C 157.686 90.695, 153.611 99.581, 153.143 108.833 C 152.644 118.726, 154.892 118.317, 156.595 108.205 C 158.148 98.987, 160.797 93.623, 166.846 87.446 C 176.721 77.361, 186.859 74.038, 207.821 74.015 C 218.534 74.003, 221.446 74.304, 222.693 75.550 C 225.727 78.584, 230.658 74.864, 228.393 71.250 C 227.049 69.106, 227.366 69.123, 206.500 70.046 M 197.410 79.375 C 196.211 82.498, 197.424 84.500, 200.514 84.500 C 203.165 84.500, 203.500 84.164, 203.500 81.500 C 203.500 78.969, 203.069 78.450, 200.744 78.183 C 198.986 77.981, 197.779 78.412, 197.410 79.375 M 226.400 80.425 C 222.910 81.947, 222 83.634, 222 88.582 C 222 93.299, 224.913 96, 230 96 C 232.667 96, 234.667 95.333, 236 94 C 237.333 92.667, 238 90.667, 238 88 C 238 84.172, 235.435 80, 233.082 80 C 232.577 80, 231.564 79.791, 230.832 79.536 C 230.099 79.282, 228.105 79.681, 226.400 80.425 M 122.040 81.452 C 120.118 83.768, 121.186 86.500, 124.014 86.500 C 125.873 86.500, 126.585 85.898, 126.837 84.113 C 127.338 80.574, 124.209 78.838, 122.040 81.452 M 185.410 81.375 C 184.211 84.498, 185.424 86.500, 188.514 86.500 C 191.165 86.500, 191.500 86.164, 191.500 83.500 C 191.500 80.969, 191.069 80.450, 188.744 80.183 C 186.986 79.981, 185.779 80.412, 185.410 81.375 M 155.256 86.411 C 148.182 94.151, 145.617 101.486, 146.187 112.350 C 146.541 119.090, 147.139 121.561, 149.311 125.268 C 152.290 130.352, 157.570 135.121, 162.961 137.599 C 180.771 145.784, 185.660 148.665, 191.511 154.419 C 198.685 161.475, 201.128 167.249, 201.186 177.289 C 201.257 189.614, 194.416 199.216, 181.341 205.145 C 177.580 206.850, 175.034 208.590, 175.273 209.291 C 176.433 212.690, 191.110 205.954, 196.914 199.360 C 203.077 192.359, 205.273 185.438, 204.802 174.500 C 204.475 166.879, 203.968 164.682, 201.499 160.159 C 196.615 151.214, 191.959 147.493, 175.026 139.004 C 157.748 130.342, 154.837 128.120, 151.757 121.243 C 147.245 111.170, 149.580 99.284, 158.512 86.850 C 160.431 84.180, 162 81.771, 162 81.498 C 162 79.906, 159.607 81.649, 155.256 86.411 M 209.521 82.621 C 207.572 84.570, 207.865 86.886, 210.250 88.388 C 212.289 89.672, 215.311 88.243, 215.800 85.764 C 216.106 84.210, 213.546 81, 212 81 C 211.529 81, 210.413 81.730, 209.521 82.621 M 227.200 85.200 C 224.340 88.060, 226.972 92.425, 231.195 91.827 C 235.422 91.228, 234.390 84, 230.078 84 C 229.155 84, 227.860 84.540, 227.200 85.200 M 248.713 87.621 C 246.250 90.083, 249.550 94.595, 253.010 93.497 C 256.199 92.485, 255.386 87.603, 251.963 87.204 C 250.567 87.041, 249.104 87.229, 248.713 87.621 M 171.415 91.360 C 171.100 92.182, 170.990 93.900, 171.171 95.177 C 171.429 96.996, 172.127 97.500, 174.391 97.500 C 177.955 97.500, 180.001 94.816, 178.394 92.250 C 176.969 89.974, 172.181 89.364, 171.415 91.360 M 181 93.931 C 181 95.744, 181.965 95.882, 196.750 96.184 L 212.500 96.506 228.359 106.318 C 242.848 115.282, 247.950 117.349, 246.757 113.771 C 246.532 113.096, 238.957 107.927, 229.924 102.284 L 213.500 92.026 197.250 92.013 C 181.855 92.001, 181 92.102, 181 93.931 M 108.500 96 C 106.957 100.861, 110.616 104.137, 114.641 101.500 C 118.840 98.748, 117.084 94, 111.867 94 C 110.013 94, 108.931 94.643, 108.500 96 M 257.923 98.923 C 254.656 102.190, 254.208 105.568, 256.463 109.928 C 258.146 113.184, 259.783 114, 264.627 114 C 269.594 114, 273 110.339, 273 105 C 273 96.482, 263.994 92.852, 257.923 98.923 M 240.563 98.802 C 239.482 102.208, 240.953 104.137, 244.378 103.804 C 247.113 103.538, 247.500 103.128, 247.500 100.500 C 247.500 97.863, 247.117 97.463, 244.335 97.193 C 241.933 96.960, 241.025 97.347, 240.563 98.802 M 117.986 102.549 C 117.137 105.584, 116.928 109.829, 117.359 115.299 C 118.227 126.311, 119.160 129.430, 121.699 129.804 C 123.713 130.101, 123.730 129.969, 122.397 124.304 C 121.646 121.112, 121.024 113.888, 121.016 108.250 C 121.007 102.612, 120.608 98, 120.130 98 C 119.651 98, 118.687 100.047, 117.986 102.549 M 100.445 100.089 C 99.102 102.263, 98.722 119.477, 99.897 124.954 C 102.209 135.736, 106.504 142.740, 117.556 153.750 C 123.215 159.387, 128.330 164, 128.923 164 C 131.688 164, 129.281 160.392, 121.121 152.302 C 107.388 138.689, 102.810 127.957, 103.092 110.043 C 103.247 100.168, 102.390 96.943, 100.445 100.089 M 193 100.270 C 189.218 102.219, 187.524 106.437, 189.047 110.113 C 191.279 115.503, 197.397 116.694, 201.545 112.545 C 207.739 106.352, 200.731 96.285, 193 100.270 M 260.372 103.655 C 259.554 106.912, 260.975 109.392, 263.907 109.827 C 266.734 110.246, 269 108.355, 269 105.578 C 269 102.626, 267.160 101, 263.819 101 C 261.643 101, 260.893 101.578, 260.372 103.655 M 176.529 103.355 C 173.764 105.377, 174.968 108.500, 178.514 108.500 C 180.822 108.500, 181.571 108.004, 181.811 106.318 C 182.226 103.403, 178.965 101.574, 176.529 103.355 M 105.652 103.755 C 105.359 104.228, 104.832 106.839, 104.479 109.557 C 103.641 116.026, 106.108 127.714, 109.974 135.585 C 113.154 142.060, 124.228 155, 126.589 155 C 129.512 155, 127.795 151.526, 121.653 145.015 C 112.722 135.548, 109.012 126.530, 108.577 113.234 C 108.294 104.571, 107.246 101.175, 105.652 103.755 M 160.407 106.513 C 159.684 109.394, 161.390 112, 164 112 C 166.610 112, 168.316 109.394, 167.593 106.513 C 167.097 104.537, 166.329 104, 164 104 C 161.671 104, 160.903 104.537, 160.407 106.513 M 193.384 105.442 C 192.315 108.227, 193.477 110.495, 196.131 110.804 C 199.188 111.160, 200.527 108.853, 198.961 105.928 C 197.753 103.670, 194.183 103.359, 193.384 105.442 M 208.473 105.044 C 207.381 106.810, 209.459 108.401, 227.864 119.888 L 245.670 131 275.442 131 C 302.179 131, 305.152 130.839, 304.607 129.418 C 304.273 128.548, 304 127.648, 304 127.418 C 304 127.188, 291.234 127, 275.632 127 L 247.263 127 235.382 119.380 C 208.764 102.311, 209.816 102.871, 208.473 105.044 M 111 109 C 111 113.541, 113.370 114.645, 114.391 110.579 C 115.147 107.565, 114.229 105, 112.393 105 C 111.434 105, 111 106.248, 111 109 M 278.011 112.487 C 277.290 113.356, 277.045 115.044, 277.423 116.548 C 277.973 118.740, 278.546 119.076, 281.284 118.811 C 283.766 118.571, 284.575 117.974, 284.827 116.195 C 285.451 111.793, 280.722 109.221, 278.011 112.487 M 169 113.968 C 169 114.500, 171.403 116.750, 174.341 118.968 L 179.682 123 192.720 123 L 205.758 123 215.629 130.861 C 228.661 141.239, 243.066 156.171, 246.376 162.731 C 251.678 173.242, 253.590 190.531, 250.443 199.500 L 249.039 203.500 249.461 196.250 C 249.793 190.547, 249.589 189, 248.503 189 C 247.603 189, 246.923 190.654, 246.550 193.750 C 244.612 209.829, 242.561 215.677, 235.517 225.211 C 230.774 231.632, 219.246 240.951, 209.859 245.953 C 181.208 261.218, 142.640 256.754, 115.098 234.984 C 108.379 229.672, 95.767 216.863, 90.746 210.250 C 87.019 205.342, 86.478 205, 82.439 205 C 80.062 205, 77.847 205.438, 77.517 205.973 C 76.527 207.574, 81.787 217.546, 87.966 225.781 C 98.464 239.772, 108.878 248.403, 125.078 256.539 C 135.160 261.603, 141.843 263.872, 155.743 266.953 C 164.066 268.798, 166.305 268.903, 178.243 268.014 C 193.723 266.861, 200.472 265.246, 211.673 260.017 C 230.749 251.112, 246.785 236.231, 255.205 219.620 C 261.217 207.759, 263.785 186.599, 260.887 172.799 C 258.704 162.400, 248.120 144.016, 244.309 144.004 C 241.652 143.995, 242.153 146.161, 245.974 151.196 C 253.345 160.910, 257.097 171.048, 257.744 183 C 257.997 187.675, 257.749 193.075, 257.192 195 C 256.341 197.943, 256.164 196.828, 256.078 188 C 255.917 171.361, 252.366 161.393, 242.575 150.087 C 236.463 143.029, 223.628 131.156, 214.507 124.122 L 208.514 119.500 194.426 119 C 180.966 118.522, 180.177 118.377, 176.736 115.750 C 173.188 113.041, 169 112.076, 169 113.968 M 247.667 114.667 C 246.097 116.236, 247.075 120.093, 249.250 120.914 C 253.569 122.545, 256.928 118.328, 253.800 115.200 C 252.506 113.906, 248.753 113.580, 247.667 114.667 M 111.690 116.154 C 108.297 118.052, 110.761 123.796, 114.373 122.410 C 116.337 121.657, 116.583 116.438, 114.690 115.711 C 113.969 115.435, 112.619 115.634, 111.690 116.154 M 159.040 119.452 C 157.589 121.200, 158.483 124.588, 160.611 125.404 C 162.757 126.228, 166 124.279, 166 122.165 C 166 118.403, 161.399 116.610, 159.040 119.452 M 168.632 122.702 C 167.183 124.150, 168.220 126.077, 171.732 128.464 C 175.274 130.871, 176.155 131, 189.047 131 L 202.630 131 217.001 145.036 C 229.655 157.394, 234 160.516, 234 157.249 C 234 155.882, 218.261 139.365, 210.546 132.637 L 203.276 126.296 190.702 126.781 C 178.541 127.249, 177.982 127.180, 173.696 124.668 C 171.258 123.239, 168.979 122.354, 168.632 122.702 M 223.724 123.134 C 221.285 124.499, 221.499 128.706, 224.048 129.515 C 226.497 130.292, 229 128.471, 229 125.913 C 229 123.471, 225.972 121.877, 223.724 123.134 M 113 126.362 C 113 128.057, 115.127 132, 116.042 132 C 117.881 132, 116.670 126.549, 114.750 126.185 C 113.787 126.003, 113 126.082, 113 126.362 M 162.960 128.025 C 160.767 129.380, 162.988 130.980, 176.329 137.655 C 183.573 141.279, 190.772 145.145, 192.327 146.245 C 194.435 147.737, 195.443 147.957, 196.288 147.112 C 197.134 146.266, 196.917 145.473, 195.439 143.995 C 192.385 140.941, 164.359 127.160, 162.960 128.025 M 119.713 133.621 C 118.200 135.133, 118.994 139.863, 120.859 140.455 C 124.211 141.519, 126.135 140.028, 125.804 136.622 C 125.561 134.123, 124.994 133.441, 122.963 133.204 C 121.567 133.041, 120.104 133.229, 119.713 133.621 M 193.410 134.375 C 192.211 137.498, 193.424 139.500, 196.514 139.500 C 199.165 139.500, 199.500 139.164, 199.500 136.500 C 199.500 133.969, 199.069 133.450, 196.744 133.183 C 194.986 132.981, 193.779 133.412, 193.410 134.375 M 237.017 136.479 C 236.007 137.697, 235.964 138.626, 236.832 140.530 C 238.833 144.923, 244.382 143.227, 243.830 138.391 C 243.572 136.132, 242.935 135.434, 240.914 135.199 C 239.459 135.030, 237.756 135.589, 237.017 136.479 M 203.566 137.689 C 203.096 138.914, 205.227 141.729, 211.324 147.939 C 225.722 162.602, 229.204 169.634, 229.181 184 C 229.165 194.093, 226.753 202.710, 221.507 211.420 C 219.115 215.391, 218.272 217.672, 218.947 218.347 C 220.473 219.873, 223.288 216.813, 226.895 209.706 C 231.290 201.049, 232.974 193.922, 232.988 183.932 C 233.001 174.424, 231.200 166.900, 227.259 160 C 224.838 155.762, 206.444 136, 204.920 136 C 204.532 136, 203.922 136.760, 203.566 137.689 M 255.073 138.635 C 250.836 144.021, 254.135 151, 260.918 151 C 265.776 151, 268 148.590, 268 143.326 C 268 138.353, 265.670 136, 260.744 136 C 258.047 136, 256.626 136.660, 255.073 138.635 M 284.011 136.949 C 274.123 137.423, 272.475 137.744, 272.188 139.250 C 271.880 140.860, 273.182 141, 288.427 141 L 305 141 305 138.500 C 305 135.689, 307.089 135.844, 284.011 136.949 M 258.587 141.313 C 255.975 143.223, 257.311 147, 260.599 147 C 263.389 147, 264.806 144.502, 263.338 142.174 C 261.961 139.991, 260.706 139.763, 258.587 141.313 M 126.336 143.566 C 125.511 145.718, 131.737 152, 134.696 152 C 137.886 152, 137.623 151.211, 132.792 146.288 C 128.198 141.607, 127.243 141.204, 126.336 143.566 M 275.750 148.055 C 273.688 150.176, 272 152.304, 272 152.785 C 272 153.265, 270.988 153.623, 269.750 153.579 C 267.901 153.514, 267.500 154.033, 267.500 156.486 C 267.500 160.384, 270.512 161.166, 272.099 157.681 C 272.716 156.328, 274.272 154.741, 275.557 154.156 C 276.843 153.570, 278.645 151.946, 279.562 150.546 C 280.479 149.145, 281.853 148, 282.615 148 C 283.377 148, 284 147.100, 284 146 C 284 142.736, 279.939 143.748, 275.750 148.055 M 284.667 152.667 C 283.397 153.936, 284.007 157.789, 285.572 158.389 C 287.511 159.133, 291 157.382, 291 155.665 C 291 152.930, 286.523 150.811, 284.667 152.667 M 133.811 156.515 C 132.306 159.819, 133.679 162.376, 137.186 162.801 C 140.334 163.181, 142.237 160.928, 141.822 157.310 C 141.552 154.954, 140.977 154.450, 138.257 154.187 C 135.572 153.928, 134.808 154.328, 133.811 156.515 M 201.567 154.892 C 201.264 155.382, 202.566 158.358, 204.460 161.504 C 206.355 164.650, 208.411 169.661, 209.029 172.640 C 212.440 189.070, 200.424 206.069, 181.202 212.008 C 177.736 213.079, 175.373 214.403, 175.177 215.385 C 174.758 217.478, 176.456 217.425, 183.875 215.116 C 192.145 212.542, 197.690 209.108, 203.355 203.051 C 210.145 195.793, 212.287 190.428, 212.801 179.399 C 213.162 171.654, 212.903 169.568, 211.064 165.399 C 207.047 156.295, 203.277 152.125, 201.567 154.892 M 276.607 157.582 C 275.150 161.379, 275.914 161.983, 279.500 159.867 C 281.425 158.732, 283 157.397, 283 156.901 C 283 155.298, 277.248 155.911, 276.607 157.582 M 234.389 159.585 C 233.567 162.861, 235.913 165.480, 238.837 164.552 C 243.380 163.110, 242.214 157, 237.397 157 C 235.694 157, 234.858 157.719, 234.389 159.585 M 145 160.551 C 145 163.067, 151.824 165.268, 160 165.389 C 169.177 165.525, 170.820 163.797, 162.500 162.761 C 159.200 162.350, 154.507 161.335, 152.072 160.507 C 146.470 158.601, 145 158.610, 145 160.551 M 285 161.986 C 284.175 162.527, 282.084 162.976, 280.354 162.985 C 278.015 162.996, 276.411 163.907, 274.104 166.535 C 272.397 168.479, 271 170.396, 271 170.794 C 271 171.193, 269.538 171.515, 267.750 171.510 C 264.947 171.501, 264.500 171.844, 264.500 174 C 264.500 176, 265.065 176.565, 267.324 176.824 C 269.493 177.072, 270.275 176.666, 270.691 175.074 C 270.989 173.933, 271.772 173, 272.430 173 C 273.087 173, 274.919 171.650, 276.500 170 C 278.996 167.395, 280.082 167, 284.754 167 C 290.028 167, 290.127 166.947, 289.816 164.259 C 289.479 161.334, 287.453 160.378, 285 161.986 M 263.176 164.676 C 263.435 166.935, 264 167.500, 266 167.500 C 268 167.500, 268.500 167, 268.500 165 C 268.500 163, 267.935 162.435, 265.676 162.176 C 263.108 161.882, 262.882 162.108, 263.176 164.676 M 142.667 164.667 C 139.258 168.075, 150.512 172, 163.694 172 C 168.812 172, 173 171.641, 173 171.202 C 173 170.764, 168.737 169.866, 163.526 169.208 C 158.315 168.550, 151.677 167.109, 148.776 166.006 C 142.596 163.657, 143.482 163.852, 142.667 164.667 M 221.582 166.868 C 221.254 167.398, 221.499 169.107, 222.127 170.666 C 222.755 172.225, 223.287 177.775, 223.309 183 C 223.356 193.982, 221.218 201.249, 215.491 209.573 C 211.748 215.012, 211.183 217, 213.378 217 C 215.277 217, 221.573 207.614, 224.127 200.977 C 226.773 194.100, 227.730 180.212, 226.043 173.181 C 224.808 168.030, 222.704 165.053, 221.582 166.868 M 135.667 167.667 C 134.209 169.125, 135.287 170.062, 142.250 173.391 C 150.745 177.452, 160.352 179.414, 167.156 178.479 C 172.880 177.691, 173.623 176.003, 168.250 175.994 C 159.139 175.980, 144.154 171.931, 139.921 168.340 C 138.191 166.872, 136.698 166.635, 135.667 167.667 M 236.395 169.750 C 245.278 199.065, 230.140 229.071, 198.596 244.680 C 194.418 246.747, 191 248.790, 191 249.219 C 191 251.064, 197.245 249.742, 203.616 246.549 C 213.548 241.570, 221.571 234.693, 229.073 224.728 C 239.581 210.771, 243.914 197.012, 242.688 181.500 C 241.967 172.378, 240.393 168, 237.835 168 C 236.424 168, 236.016 168.496, 236.395 169.750 M 279.003 175.149 C 277.223 178.042, 275.154 182.146, 274.405 184.269 C 273.656 186.393, 272.133 189.287, 271.021 190.700 C 268.492 193.916, 268.469 195, 270.932 195 C 273.278 195, 275.815 191.525, 279.469 183.306 C 281.733 178.215, 282.693 177.057, 284.862 176.806 C 287.059 176.551, 287.500 175.998, 287.500 173.500 C 287.500 171.004, 287.058 170.449, 284.870 170.195 C 282.643 169.937, 281.743 170.697, 279.003 175.149 M 101.667 172.667 C 100.478 173.855, 100.961 177.723, 102.452 178.960 C 105.721 181.674, 110.674 176.721, 107.960 173.452 C 106.723 171.961, 102.855 171.478, 101.667 172.667 M 284.250 180.662 C 283.563 180.940, 283 182.077, 283 183.190 C 283 184.625, 283.461 185.037, 284.582 184.607 C 285.452 184.273, 286.352 184, 286.582 184 C 286.812 184, 287 183.100, 287 182 C 287 179.979, 286.521 179.746, 284.250 180.662 M 266.106 182.801 C 264.770 185.298, 266.873 188.364, 269.566 187.845 C 272.494 187.281, 272.283 181.611, 269.318 181.189 C 267.962 180.996, 266.746 181.607, 266.106 182.801 M 193.448 187.756 C 186.431 198.817, 167.215 203.961, 149.784 199.444 C 143.508 197.818, 142.391 197.972, 143.300 200.339 C 144.688 203.957, 167.283 205.874, 176.663 203.170 C 184.852 200.809, 197.098 189.795, 195.815 185.945 C 195.568 185.204, 194.595 185.948, 193.448 187.756 M 279.250 191.718 C 278.563 191.965, 278 193.284, 278 194.650 C 278 196.767, 278.404 197.086, 280.741 196.816 C 282.347 196.631, 283.615 195.803, 283.802 194.817 C 284.150 192.979, 281.246 191.003, 279.250 191.718 M 65.390 193.426 C 64.462 195.845, 65.708 198, 68.035 198 C 69.732 198, 70.072 197.476, 69.816 195.259 C 69.461 192.183, 66.360 190.899, 65.390 193.426 M 123.714 192.619 C 122.185 194.148, 123.020 198.940, 125 200 C 128.265 201.748, 131.186 199.578, 130.808 195.684 C 130.544 192.952, 130.069 192.458, 127.464 192.203 C 125.794 192.039, 124.107 192.227, 123.714 192.619 M 264.302 200.654 C 263.549 202.617, 264.896 204, 267.559 204 C 269.881 204, 270.166 203.674, 270.400 200.750 C 270.532 199.103, 264.931 199.015, 264.302 200.654 M 131 203.352 C 131 205.927, 153.808 214.526, 155.678 212.656 C 157.089 211.245, 154.793 209.141, 151.175 208.530 C 148.995 208.161, 144.423 206.541, 141.016 204.930 C 134.291 201.750, 131 201.231, 131 203.352 M 269.086 207.397 C 268.404 208.218, 267.994 209.927, 268.173 211.195 C 268.428 212.995, 269.134 213.500, 271.391 213.500 C 274.956 213.500, 277.001 210.816, 275.393 208.250 C 273.957 205.960, 270.650 205.512, 269.086 207.397 M 160.243 208.157 C 157.344 211.056, 159.936 215.430, 164.195 214.827 C 166.100 214.557, 166.500 213.893, 166.500 211 C 166.500 208.009, 166.136 207.457, 163.993 207.207 C 162.614 207.046, 160.927 207.473, 160.243 208.157 M 472.500 212.672 C 465.939 214.403, 463.614 222.978, 468.635 226.927 C 470.084 228.067, 472.473 229, 473.944 229 C 477.217 229, 480.564 231.279, 479.594 232.848 C 478.593 234.467, 475.392 234.280, 471.359 232.366 C 468.101 230.820, 467.840 230.834, 466.492 232.616 C 464.558 235.174, 465.026 236.198, 469.060 238.248 C 475.122 241.330, 484.718 239.782, 486.379 235.455 C 488.529 229.851, 485.288 224.579, 478.952 223.375 C 472.411 222.131, 469.997 219.771, 473.974 218.508 C 475.060 218.164, 477.595 218.663, 479.608 219.618 C 483.121 221.285, 483.322 221.280, 484.634 219.486 C 486.504 216.929, 486.373 216.290, 483.606 214.477 C 480.947 212.735, 475.572 211.862, 472.500 212.672 M 510.121 213.654 C 505.358 216.079, 503.008 220.408, 503.004 226.765 C 503.001 231.315, 503.441 232.510, 506.250 235.568 C 512.052 241.884, 520.959 241.895, 526.734 235.593 C 529.602 232.464, 530 231.353, 530 226.476 C 530 221.430, 529.654 220.551, 526.213 216.862 C 523.116 213.543, 521.612 212.723, 517.963 212.368 C 514.982 212.078, 512.378 212.505, 510.121 213.654 M 600.628 213.528 C 600.282 214.427, 600 218.695, 600 223.010 C 600 233.262, 597.581 236.196, 592.223 232.443 C 590.208 231.032, 590 230.051, 590 221.943 L 590 213 586.409 213 L 582.818 213 583.159 223.584 C 583.498 234.100, 583.521 234.186, 586.766 237.084 C 589.496 239.522, 590.894 240, 595.293 240 C 604.874 240, 607.231 236.299, 606.790 221.946 C 606.503 212.582, 606.477 212.497, 603.878 212.196 C 602.169 211.998, 601.037 212.462, 600.628 213.528 M 685.062 213.827 C 675.850 218.768, 675.755 233.719, 684.906 238.451 C 694.677 243.504, 705.006 236.999, 704.996 225.800 C 704.987 215.055, 694.508 208.761, 685.062 213.827 M 721.598 212.736 C 721.269 213.064, 721 219.333, 721 226.667 L 721 240 724 240 L 727 240 727 232.371 L 727 224.742 733.090 232.371 C 737.572 237.987, 739.800 240, 741.531 240 C 742.824 240, 744.142 239.579, 744.460 239.064 C 744.778 238.550, 744.736 232.475, 744.367 225.564 L 743.695 213 740.848 213 C 738.003 213, 738 213.007, 737.957 219.750 L 737.914 226.500 731.707 219.936 C 725.661 213.543, 722.816 211.517, 721.598 212.736 M 767.500 212.945 C 761.916 215.231, 759.861 222.306, 763.674 226.119 C 764.778 227.223, 767.860 228.682, 770.523 229.361 C 773.187 230.041, 775.540 231.121, 775.754 231.761 C 776.423 233.770, 771.322 234.307, 767.882 232.591 C 764.921 231.114, 764.527 231.118, 762.835 232.649 C 761.826 233.563, 761 234.818, 761 235.439 C 761 237.579, 766.732 240, 771.799 240 C 780.936 240, 786.137 232.046, 780.612 226.521 C 779.298 225.207, 776.486 223.843, 774.362 223.488 C 768.702 222.544, 767.789 222.136, 768.244 220.749 C 768.811 219.024, 773.434 218.627, 776.134 220.071 C 778.053 221.099, 778.620 220.952, 780.183 219.022 C 782.719 215.890, 782.532 215.430, 777.980 213.609 C 773.611 211.861, 770.614 211.671, 767.500 212.945 M 548 226.500 L 548 240 558 240 L 568 240 568 237 L 568 234 561 234 L 554 234 554 223.500 L 554 213 551 213 L 548 213 548 226.500 M 621 216 C 621 218.833, 621.222 219, 625 219 L 629 219 629 229.500 L 629 240 632 240 L 635 240 635 229.557 L 635 219.115 639.250 218.807 C 643.053 218.532, 643.533 218.211, 643.816 215.750 L 644.133 213 632.566 213 L 621 213 621 216 M 657 226.500 L 657 240 660 240 L 663 240 663 226.500 L 663 213 660 213 L 657 213 657 226.500 M 260.390 218.427 C 259.175 221.593, 260.444 224.493, 263.183 224.810 C 266.572 225.201, 268.637 222.058, 267 219 C 265.755 216.674, 261.213 216.280, 260.390 218.427 M 203.012 222.497 C 200.544 224.346, 195.819 227.129, 192.512 228.680 C 189.206 230.231, 186.162 232.023, 185.749 232.662 C 185.337 233.301, 183.225 234.124, 181.057 234.490 C 178.889 234.857, 176.584 235.796, 175.935 236.578 C 172.717 240.456, 188.873 236.216, 198.120 230.756 C 203.320 227.685, 211 221.226, 211 219.922 C 211 218.057, 207.380 219.224, 203.012 222.497 M 511.073 221.635 C 508.238 225.238, 508.469 227.623, 511.993 231.147 C 514.262 233.416, 515.531 233.976, 517.243 233.465 C 525.781 230.915, 525.102 219, 516.418 219 C 514.073 219, 512.557 219.747, 511.073 221.635 M 686.532 220.964 C 682.347 225.589, 685.457 233, 691.584 233 C 700.847 233, 701.097 220.001, 691.850 219.201 C 689.371 218.987, 687.872 219.484, 686.532 220.964 M 211.423 222.452 C 210.583 225.799, 212.588 228.187, 215.914 227.801 C 218.145 227.541, 218.500 227.020, 218.500 224 C 218.500 220.790, 218.234 220.474, 215.284 220.189 C 212.546 219.924, 211.973 220.260, 211.423 222.452 M 365.750 221.080 C 363.579 222.344, 363.512 224.369, 365.571 226.429 C 367.918 228.775, 409.082 228.775, 411.429 226.429 C 413.308 224.550, 413.430 222.830, 411.800 221.200 C 410.265 219.665, 368.367 219.556, 365.750 221.080 M 840.200 221.200 C 839.540 221.860, 839 223.120, 839 224 C 839 227.700, 840.836 228, 863.500 228 C 879.356 228, 885.939 227.661, 886.800 226.800 C 888.514 225.086, 888.282 221.322, 886.418 220.607 C 883.262 219.396, 841.468 219.932, 840.200 221.200 M 111.410 224.375 C 110.211 227.498, 111.424 229.500, 114.514 229.500 C 117.165 229.500, 117.500 229.164, 117.500 226.500 C 117.500 223.969, 117.069 223.450, 114.744 223.183 C 112.986 222.981, 111.779 223.412, 111.410 224.375 M 255.046 227.444 C 253.221 229.644, 254.508 232, 257.535 232 C 259.777 232, 260.090 231.625, 259.816 229.259 C 259.455 226.125, 256.936 225.167, 255.046 227.444 M 205.101 229.568 C 202.653 231.629, 202.291 232.397, 203.274 233.454 C 204.282 234.538, 204.988 234.425, 207.250 232.818 C 209.841 230.977, 211.089 227, 209.077 227 C 208.569 227, 206.780 228.156, 205.101 229.568 M 127.015 232.481 C 125.993 233.713, 125.960 234.616, 126.863 236.598 C 128.193 239.518, 131.607 239.598, 133.393 236.750 C 135.719 233.039, 129.826 229.095, 127.015 232.481 M 194.970 235.536 C 193.154 237.725, 194.908 240.500, 198.109 240.500 C 200.099 240.500, 200.500 239.997, 200.500 237.500 C 200.500 235.220, 199.999 234.428, 198.412 234.202 C 197.264 234.038, 195.715 234.638, 194.970 235.536 M 250.525 235.296 C 249.439 235.958, 244.489 240.239, 239.525 244.809 C 232.037 251.702, 228.504 254.086, 218.782 258.809 C 210.285 262.936, 207.056 264.999, 207.032 266.317 C 206.996 268.387, 207.855 268.234, 217.279 264.499 C 226.554 260.823, 233.843 256.022, 242.326 248 C 248.046 242.590, 250.987 240.500, 252.878 240.500 C 255.122 240.500, 255.500 240.069, 255.500 237.514 C 255.500 234.178, 253.685 233.368, 250.525 235.296 M 144.502 235.997 C 143.659 237.361, 145.013 237.787, 154.341 239.092 C 160.963 240.018, 163.366 240.034, 164.243 239.157 C 164.967 238.433, 165.045 237.673, 164.450 237.126 C 163.155 235.934, 145.170 234.916, 144.502 235.997 M 168.046 236.444 C 165.345 239.699, 169.815 243.614, 172.811 240.618 C 174.084 239.344, 174.215 238.563, 173.376 237.231 C 171.916 234.913, 169.601 234.571, 168.046 236.444 M 134 240.474 C 134 245.326, 159.573 250.738, 174.500 249.044 C 186.843 247.644, 194.859 244.516, 192.431 242.048 C 191.662 241.266, 190.178 241.379, 187.148 242.448 C 174.734 246.828, 157.526 246.437, 142.174 241.425 C 133.398 238.560, 134 238.630, 134 240.474" stroke="none" fill="#35caf9" fill-rule="evenodd"/></svg>